solid ascii
 facet normal 0.998027 -0.0627907 -1.39423e-17
  outer loop
   vertex 0.1 8.32667e-17 -0.375
   vertex 0.1 -8.32667e-17 0.375
   vertex 0.0992115 -0.0125333 -0.375
  endloop
 endfacet
 facet normal 0.998027 -0.0627907 0
  outer loop
   vertex 0.0992115 -0.0125333 0.375
   vertex 0.0992115 -0.0125333 -0.375
   vertex 0.1 -8.32667e-17 0.375
  endloop
 endfacet
 facet normal 0.982287 -0.187381 0
  outer loop
   vertex 0.0992115 -0.0125333 -0.375
   vertex 0.0992115 -0.0125333 0.375
   vertex 0.0968583 -0.024869 -0.375
  endloop
 endfacet
 facet normal 0.982287 -0.187381 0
  outer loop
   vertex 0.0968583 -0.024869 0.375
   vertex 0.0968583 -0.024869 -0.375
   vertex 0.0992115 -0.0125333 0.375
  endloop
 endfacet
 facet normal 0.951057 -0.309017 0
  outer loop
   vertex 0.0968583 -0.024869 -0.375
   vertex 0.0968583 -0.024869 0.375
   vertex 0.0929777 -0.0368125 -0.375
  endloop
 endfacet
 facet normal 0.951057 -0.309017 0
  outer loop
   vertex 0.0929777 -0.0368125 -0.375
   vertex 0.0968583 -0.024869 0.375
   vertex 0.0929777 -0.0368125 0.375
  endloop
 endfacet
 facet normal 0.904827 -0.425779 0
  outer loop
   vertex 0.0929777 -0.0368125 -0.375
   vertex 0.0929777 -0.0368125 0.375
   vertex 0.0876307 -0.0481754 -0.375
  endloop
 endfacet
 facet normal 0.904827 -0.425779 0
  outer loop
   vertex 0.0876307 -0.0481754 -0.375
   vertex 0.0929777 -0.0368125 0.375
   vertex 0.0876307 -0.0481754 0.375
  endloop
 endfacet
 facet normal 0.844328 -0.535827 0
  outer loop
   vertex 0.0876307 -0.0481754 -0.375
   vertex 0.0876307 -0.0481754 0.375
   vertex 0.0809017 -0.0587785 -0.375
  endloop
 endfacet
 facet normal 0.844328 -0.535827 0
  outer loop
   vertex 0.0809017 -0.0587785 -0.375
   vertex 0.0876307 -0.0481754 0.375
   vertex 0.0809017 -0.0587785 0.375
  endloop
 endfacet
 facet normal 0.770513 -0.637424 0
  outer loop
   vertex 0.0809017 -0.0587785 -0.375
   vertex 0.0809017 -0.0587785 0.375
   vertex 0.0728969 -0.0684547 -0.375
  endloop
 endfacet
 facet normal 0.770513 -0.637424 0
  outer loop
   vertex 0.0728969 -0.0684547 -0.375
   vertex 0.0809017 -0.0587785 0.375
   vertex 0.0728969 -0.0684547 0.375
  endloop
 endfacet
 facet normal 0.684547 -0.728969 0
  outer loop
   vertex 0.0728969 -0.0684547 -0.375
   vertex 0.0728969 -0.0684547 0.375
   vertex 0.0637424 -0.0770513 -0.375
  endloop
 endfacet
 facet normal 0.684547 -0.728969 0
  outer loop
   vertex 0.0637424 -0.0770513 0.375
   vertex 0.0637424 -0.0770513 -0.375
   vertex 0.0728969 -0.0684547 0.375
  endloop
 endfacet
 facet normal 0.587785 -0.809017 0
  outer loop
   vertex 0.0637424 -0.0770513 -0.375
   vertex 0.0637424 -0.0770513 0.375
   vertex 0.0535827 -0.0844328 -0.375
  endloop
 endfacet
 facet normal 0.587785 -0.809017 0
  outer loop
   vertex 0.0535827 -0.0844328 0.375
   vertex 0.0535827 -0.0844328 -0.375
   vertex 0.0637424 -0.0770513 0.375
  endloop
 endfacet
 facet normal 0.481753 -0.876307 0
  outer loop
   vertex 0.0535827 -0.0844328 -0.375
   vertex 0.0535827 -0.0844328 0.375
   vertex 0.0425779 -0.0904827 -0.375
  endloop
 endfacet
 facet normal 0.481753 -0.876307 0
  outer loop
   vertex 0.0425779 -0.0904827 0.375
   vertex 0.0425779 -0.0904827 -0.375
   vertex 0.0535827 -0.0844328 0.375
  endloop
 endfacet
 facet normal 0.368124 -0.929777 0
  outer loop
   vertex 0.0425779 -0.0904827 -0.375
   vertex 0.0425779 -0.0904827 0.375
   vertex 0.0309017 -0.0951056 -0.375
  endloop
 endfacet
 facet normal 0.368124 -0.929777 0
  outer loop
   vertex 0.0309017 -0.0951056 0.375
   vertex 0.0309017 -0.0951056 -0.375
   vertex 0.0425779 -0.0904827 0.375
  endloop
 endfacet
 facet normal 0.24869 -0.968583 0
  outer loop
   vertex 0.0309017 -0.0951056 -0.375
   vertex 0.0309017 -0.0951056 0.375
   vertex 0.0187381 -0.0982287 -0.375
  endloop
 endfacet
 facet normal 0.24869 -0.968583 0
  outer loop
   vertex 0.0187381 -0.0982287 0.375
   vertex 0.0187381 -0.0982287 -0.375
   vertex 0.0309017 -0.0951056 0.375
  endloop
 endfacet
 facet normal 0.125333 -0.992115 0
  outer loop
   vertex 0.0187381 -0.0982287 -0.375
   vertex 0.0187381 -0.0982287 0.375
   vertex 0.00627905 -0.0998027 -0.375
  endloop
 endfacet
 facet normal 0.125333 -0.992115 0
  outer loop
   vertex 0.00627905 -0.0998027 0.375
   vertex 0.00627905 -0.0998027 -0.375
   vertex 0.0187381 -0.0982287 0.375
  endloop
 endfacet
 facet normal 0 -1 -0
  outer loop
   vertex 0.00627905 -0.0998027 -0.375
   vertex 0.00627905 -0.0998027 0.375
   vertex -0.00627905 -0.0998027 -0.375
  endloop
 endfacet
 facet normal 0 -1 0
  outer loop
   vertex -0.00627905 -0.0998027 0.375
   vertex -0.00627905 -0.0998027 -0.375
   vertex 0.00627905 -0.0998027 0.375
  endloop
 endfacet
 facet normal -0.125333 -0.992115 -0
  outer loop
   vertex -0.00627905 -0.0998027 -0.375
   vertex -0.00627905 -0.0998027 0.375
   vertex -0.0187381 -0.0982287 -0.375
  endloop
 endfacet
 facet normal -0.125333 -0.992115 0
  outer loop
   vertex -0.0187381 -0.0982287 0.375
   vertex -0.0187381 -0.0982287 -0.375
   vertex -0.00627905 -0.0998027 0.375
  endloop
 endfacet
 facet normal -0.24869 -0.968583 -0
  outer loop
   vertex -0.0187381 -0.0982287 -0.375
   vertex -0.0187381 -0.0982287 0.375
   vertex -0.0309017 -0.0951056 -0.375
  endloop
 endfacet
 facet normal -0.24869 -0.968583 0
  outer loop
   vertex -0.0309017 -0.0951056 0.375
   vertex -0.0309017 -0.0951056 -0.375
   vertex -0.0187381 -0.0982287 0.375
  endloop
 endfacet
 facet normal -0.368124 -0.929777 -0
  outer loop
   vertex -0.0309017 -0.0951056 -0.375
   vertex -0.0309017 -0.0951056 0.375
   vertex -0.0425779 -0.0904827 -0.375
  endloop
 endfacet
 facet normal -0.368124 -0.929777 0
  outer loop
   vertex -0.0425779 -0.0904827 0.375
   vertex -0.0425779 -0.0904827 -0.375
   vertex -0.0309017 -0.0951056 0.375
  endloop
 endfacet
 facet normal -0.481753 -0.876307 -0
  outer loop
   vertex -0.0425779 -0.0904827 -0.375
   vertex -0.0425779 -0.0904827 0.375
   vertex -0.0535827 -0.0844328 -0.375
  endloop
 endfacet
 facet normal -0.481753 -0.876307 0
  outer loop
   vertex -0.0535827 -0.0844328 0.375
   vertex -0.0535827 -0.0844328 -0.375
   vertex -0.0425779 -0.0904827 0.375
  endloop
 endfacet
 facet normal -0.587785 -0.809017 -0
  outer loop
   vertex -0.0535827 -0.0844328 -0.375
   vertex -0.0535827 -0.0844328 0.375
   vertex -0.0637424 -0.0770513 -0.375
  endloop
 endfacet
 facet normal -0.587785 -0.809017 0
  outer loop
   vertex -0.0637424 -0.0770513 0.375
   vertex -0.0637424 -0.0770513 -0.375
   vertex -0.0535827 -0.0844328 0.375
  endloop
 endfacet
 facet normal -0.684547 -0.728969 -0
  outer loop
   vertex -0.0637424 -0.0770513 -0.375
   vertex -0.0637424 -0.0770513 0.375
   vertex -0.0728969 -0.0684547 -0.375
  endloop
 endfacet
 facet normal -0.684547 -0.728969 0
  outer loop
   vertex -0.0728969 -0.0684547 0.375
   vertex -0.0728969 -0.0684547 -0.375
   vertex -0.0637424 -0.0770513 0.375
  endloop
 endfacet
 facet normal -0.770513 -0.637424 -0
  outer loop
   vertex -0.0728969 -0.0684547 -0.375
   vertex -0.0728969 -0.0684547 0.375
   vertex -0.0809017 -0.0587785 -0.375
  endloop
 endfacet
 facet normal -0.770513 -0.637424 0
  outer loop
   vertex -0.0809017 -0.0587785 -0.375
   vertex -0.0728969 -0.0684547 0.375
   vertex -0.0809017 -0.0587785 0.375
  endloop
 endfacet
 facet normal -0.844328 -0.535827 -0
  outer loop
   vertex -0.0809017 -0.0587785 -0.375
   vertex -0.0809017 -0.0587785 0.375
   vertex -0.0876307 -0.0481754 -0.375
  endloop
 endfacet
 facet normal -0.844328 -0.535827 0
  outer loop
   vertex -0.0876307 -0.0481754 -0.375
   vertex -0.0809017 -0.0587785 0.375
   vertex -0.0876307 -0.0481754 0.375
  endloop
 endfacet
 facet normal -0.904827 -0.425779 -0
  outer loop
   vertex -0.0876307 -0.0481754 -0.375
   vertex -0.0876307 -0.0481754 0.375
   vertex -0.0929777 -0.0368125 -0.375
  endloop
 endfacet
 facet normal -0.904827 -0.425779 0
  outer loop
   vertex -0.0929777 -0.0368125 -0.375
   vertex -0.0876307 -0.0481754 0.375
   vertex -0.0929777 -0.0368125 0.375
  endloop
 endfacet
 facet normal -0.951057 -0.309017 -0
  outer loop
   vertex -0.0929777 -0.0368125 -0.375
   vertex -0.0929777 -0.0368125 0.375
   vertex -0.0968583 -0.024869 -0.375
  endloop
 endfacet
 facet normal -0.951057 -0.309017 0
  outer loop
   vertex -0.0968583 -0.024869 -0.375
   vertex -0.0929777 -0.0368125 0.375
   vertex -0.0968583 -0.024869 0.375
  endloop
 endfacet
 facet normal -0.982287 -0.187381 -0
  outer loop
   vertex -0.0968583 -0.024869 -0.375
   vertex -0.0968583 -0.024869 0.375
   vertex -0.0992115 -0.0125333 -0.375
  endloop
 endfacet
 facet normal -0.982287 -0.187381 0
  outer loop
   vertex -0.0992115 -0.0125333 0.375
   vertex -0.0992115 -0.0125333 -0.375
   vertex -0.0968583 -0.024869 0.375
  endloop
 endfacet
 facet normal -0.998027 -0.0627907 -0
  outer loop
   vertex -0.0992115 -0.0125333 -0.375
   vertex -0.0992115 -0.0125333 0.375
   vertex -0.1 1.15429e-16 -0.375
  endloop
 endfacet
 facet normal -0.998027 -0.0627907 -1.39423e-17
  outer loop
   vertex -0.1 -5.11043e-17 0.375
   vertex -0.1 1.15429e-16 -0.375
   vertex -0.0992115 -0.0125333 0.375
  endloop
 endfacet
 facet normal -0.998027 0.0627907 1.38496e-17
  outer loop
   vertex -0.1 -5.11043e-17 0.375
   vertex -0.0992115 0.0125333 0.375
   vertex -0.1 1.15429e-16 -0.375
  endloop
 endfacet
 facet normal -0.998027 0.0627907 0
  outer loop
   vertex -0.0992115 0.0125333 -0.375
   vertex -0.1 1.15429e-16 -0.375
   vertex -0.0992115 0.0125333 0.375
  endloop
 endfacet
 facet normal -0.982287 0.187381 0
  outer loop
   vertex -0.0992115 0.0125333 -0.375
   vertex -0.0992115 0.0125333 0.375
   vertex -0.0968583 0.024869 -0.375
  endloop
 endfacet
 facet normal -0.982287 0.187381 0
  outer loop
   vertex -0.0968583 0.024869 0.375
   vertex -0.0968583 0.024869 -0.375
   vertex -0.0992115 0.0125333 0.375
  endloop
 endfacet
 facet normal -0.951057 0.309017 0
  outer loop
   vertex -0.0968583 0.024869 -0.375
   vertex -0.0968583 0.024869 0.375
   vertex -0.0929777 0.0368125 -0.375
  endloop
 endfacet
 facet normal -0.951057 0.309017 0
  outer loop
   vertex -0.0929777 0.0368125 -0.375
   vertex -0.0968583 0.024869 0.375
   vertex -0.0929777 0.0368125 0.375
  endloop
 endfacet
 facet normal -0.904827 0.425779 0
  outer loop
   vertex -0.0929777 0.0368125 -0.375
   vertex -0.0929777 0.0368125 0.375
   vertex -0.0876307 0.0481754 -0.375
  endloop
 endfacet
 facet normal -0.904827 0.425779 0
  outer loop
   vertex -0.0876307 0.0481754 -0.375
   vertex -0.0929777 0.0368125 0.375
   vertex -0.0876307 0.0481754 0.375
  endloop
 endfacet
 facet normal -0.844328 0.535827 0
  outer loop
   vertex -0.0876307 0.0481754 -0.375
   vertex -0.0876307 0.0481754 0.375
   vertex -0.0809017 0.0587785 -0.375
  endloop
 endfacet
 facet normal -0.844328 0.535827 0
  outer loop
   vertex -0.0809017 0.0587785 -0.375
   vertex -0.0876307 0.0481754 0.375
   vertex -0.0809017 0.0587785 0.375
  endloop
 endfacet
 facet normal -0.770513 0.637424 0
  outer loop
   vertex -0.0809017 0.0587785 -0.375
   vertex -0.0809017 0.0587785 0.375
   vertex -0.0728969 0.0684547 -0.375
  endloop
 endfacet
 facet normal -0.770513 0.637424 0
  outer loop
   vertex -0.0728969 0.0684547 -0.375
   vertex -0.0809017 0.0587785 0.375
   vertex -0.0728969 0.0684547 0.375
  endloop
 endfacet
 facet normal -0.684547 0.728969 0
  outer loop
   vertex -0.0728969 0.0684547 -0.375
   vertex -0.0728969 0.0684547 0.375
   vertex -0.0637424 0.0770513 -0.375
  endloop
 endfacet
 facet normal -0.684547 0.728969 0
  outer loop
   vertex -0.0637424 0.0770513 0.375
   vertex -0.0637424 0.0770513 -0.375
   vertex -0.0728969 0.0684547 0.375
  endloop
 endfacet
 facet normal -0.587785 0.809017 0
  outer loop
   vertex -0.0637424 0.0770513 -0.375
   vertex -0.0637424 0.0770513 0.375
   vertex -0.0535827 0.0844328 -0.375
  endloop
 endfacet
 facet normal -0.587785 0.809017 0
  outer loop
   vertex -0.0535827 0.0844328 0.375
   vertex -0.0535827 0.0844328 -0.375
   vertex -0.0637424 0.0770513 0.375
  endloop
 endfacet
 facet normal -0.481753 0.876307 0
  outer loop
   vertex -0.0535827 0.0844328 -0.375
   vertex -0.0535827 0.0844328 0.375
   vertex -0.0425779 0.0904827 -0.375
  endloop
 endfacet
 facet normal -0.481753 0.876307 0
  outer loop
   vertex -0.0425779 0.0904827 0.375
   vertex -0.0425779 0.0904827 -0.375
   vertex -0.0535827 0.0844328 0.375
  endloop
 endfacet
 facet normal -0.368124 0.929777 0
  outer loop
   vertex -0.0425779 0.0904827 -0.375
   vertex -0.0425779 0.0904827 0.375
   vertex -0.0309017 0.0951056 -0.375
  endloop
 endfacet
 facet normal -0.368124 0.929777 0
  outer loop
   vertex -0.0309017 0.0951056 0.375
   vertex -0.0309017 0.0951056 -0.375
   vertex -0.0425779 0.0904827 0.375
  endloop
 endfacet
 facet normal -0.24869 0.968583 0
  outer loop
   vertex -0.0309017 0.0951056 -0.375
   vertex -0.0309017 0.0951056 0.375
   vertex -0.0187381 0.0982287 -0.375
  endloop
 endfacet
 facet normal -0.24869 0.968583 0
  outer loop
   vertex -0.0187381 0.0982287 0.375
   vertex -0.0187381 0.0982287 -0.375
   vertex -0.0309017 0.0951056 0.375
  endloop
 endfacet
 facet normal -0.125333 0.992115 0
  outer loop
   vertex -0.0187381 0.0982287 -0.375
   vertex -0.0187381 0.0982287 0.375
   vertex -0.00627905 0.0998027 -0.375
  endloop
 endfacet
 facet normal -0.125333 0.992115 0
  outer loop
   vertex -0.00627905 0.0998027 0.375
   vertex -0.00627905 0.0998027 -0.375
   vertex -0.0187381 0.0982287 0.375
  endloop
 endfacet
 facet normal 0 1 0
  outer loop
   vertex -0.00627905 0.0998027 -0.375
   vertex -0.00627905 0.0998027 0.375
   vertex 0.00627905 0.0998027 -0.375
  endloop
 endfacet
 facet normal 0 1 -0
  outer loop
   vertex 0.00627905 0.0998027 0.375
   vertex 0.00627905 0.0998027 -0.375
   vertex -0.00627905 0.0998027 0.375
  endloop
 endfacet
 facet normal 0.125333 0.992115 0
  outer loop
   vertex 0.00627905 0.0998027 -0.375
   vertex 0.00627905 0.0998027 0.375
   vertex 0.0187381 0.0982287 -0.375
  endloop
 endfacet
 facet normal 0.125333 0.992115 -0
  outer loop
   vertex 0.0187381 0.0982287 0.375
   vertex 0.0187381 0.0982287 -0.375
   vertex 0.00627905 0.0998027 0.375
  endloop
 endfacet
 facet normal 0.24869 0.968583 0
  outer loop
   vertex 0.0187381 0.0982287 -0.375
   vertex 0.0187381 0.0982287 0.375
   vertex 0.0309017 0.0951056 -0.375
  endloop
 endfacet
 facet normal 0.24869 0.968583 -0
  outer loop
   vertex 0.0309017 0.0951056 0.375
   vertex 0.0309017 0.0951056 -0.375
   vertex 0.0187381 0.0982287 0.375
  endloop
 endfacet
 facet normal 0.368124 0.929777 0
  outer loop
   vertex 0.0309017 0.0951056 -0.375
   vertex 0.0309017 0.0951056 0.375
   vertex 0.0425779 0.0904827 -0.375
  endloop
 endfacet
 facet normal 0.368124 0.929777 -0
  outer loop
   vertex 0.0425779 0.0904827 0.375
   vertex 0.0425779 0.0904827 -0.375
   vertex 0.0309017 0.0951056 0.375
  endloop
 endfacet
 facet normal 0.481753 0.876307 0
  outer loop
   vertex 0.0425779 0.0904827 -0.375
   vertex 0.0425779 0.0904827 0.375
   vertex 0.0535827 0.0844328 -0.375
  endloop
 endfacet
 facet normal 0.481753 0.876307 -0
  outer loop
   vertex 0.0535827 0.0844328 0.375
   vertex 0.0535827 0.0844328 -0.375
   vertex 0.0425779 0.0904827 0.375
  endloop
 endfacet
 facet normal 0.587785 0.809017 0
  outer loop
   vertex 0.0535827 0.0844328 -0.375
   vertex 0.0535827 0.0844328 0.375
   vertex 0.0637424 0.0770513 -0.375
  endloop
 endfacet
 facet normal 0.587785 0.809017 -0
  outer loop
   vertex 0.0637424 0.0770513 0.375
   vertex 0.0637424 0.0770513 -0.375
   vertex 0.0535827 0.0844328 0.375
  endloop
 endfacet
 facet normal 0.684547 0.728969 0
  outer loop
   vertex 0.0637424 0.0770513 -0.375
   vertex 0.0637424 0.0770513 0.375
   vertex 0.0728969 0.0684547 -0.375
  endloop
 endfacet
 facet normal 0.684547 0.728969 -0
  outer loop
   vertex 0.0728969 0.0684547 0.375
   vertex 0.0728969 0.0684547 -0.375
   vertex 0.0637424 0.0770513 0.375
  endloop
 endfacet
 facet normal 0.770513 0.637424 0
  outer loop
   vertex 0.0728969 0.0684547 -0.375
   vertex 0.0728969 0.0684547 0.375
   vertex 0.0809017 0.0587785 -0.375
  endloop
 endfacet
 facet normal 0.770513 0.637424 0
  outer loop
   vertex 0.0809017 0.0587785 -0.375
   vertex 0.0728969 0.0684547 0.375
   vertex 0.0809017 0.0587785 0.375
  endloop
 endfacet
 facet normal 0.844328 0.535827 0
  outer loop
   vertex 0.0809017 0.0587785 -0.375
   vertex 0.0809017 0.0587785 0.375
   vertex 0.0876307 0.0481754 -0.375
  endloop
 endfacet
 facet normal 0.844328 0.535827 0
  outer loop
   vertex 0.0876307 0.0481754 -0.375
   vertex 0.0809017 0.0587785 0.375
   vertex 0.0876307 0.0481754 0.375
  endloop
 endfacet
 facet normal 0.904827 0.425779 0
  outer loop
   vertex 0.0876307 0.0481754 -0.375
   vertex 0.0876307 0.0481754 0.375
   vertex 0.0929777 0.0368125 -0.375
  endloop
 endfacet
 facet normal 0.904827 0.425779 0
  outer loop
   vertex 0.0929777 0.0368125 -0.375
   vertex 0.0876307 0.0481754 0.375
   vertex 0.0929777 0.0368125 0.375
  endloop
 endfacet
 facet normal 0.951057 0.309017 0
  outer loop
   vertex 0.0929777 0.0368125 -0.375
   vertex 0.0929777 0.0368125 0.375
   vertex 0.0968583 0.024869 -0.375
  endloop
 endfacet
 facet normal 0.951057 0.309017 0
  outer loop
   vertex 0.0968583 0.024869 -0.375
   vertex 0.0929777 0.0368125 0.375
   vertex 0.0968583 0.024869 0.375
  endloop
 endfacet
 facet normal 0.982287 0.187381 0
  outer loop
   vertex 0.0968583 0.024869 -0.375
   vertex 0.0968583 0.024869 0.375
   vertex 0.0992115 0.0125333 -0.375
  endloop
 endfacet
 facet normal 0.982287 0.187381 -0
  outer loop
   vertex 0.0992115 0.0125333 0.375
   vertex 0.0992115 0.0125333 -0.375
   vertex 0.0968583 0.024869 0.375
  endloop
 endfacet
 facet normal 0.998027 0.0627907 0
  outer loop
   vertex 0.0992115 0.0125333 0.375
   vertex 0.1 -8.32667e-17 0.375
   vertex 0.0992115 0.0125333 -0.375
  endloop
 endfacet
 facet normal 0.998027 0.0627907 1.40294e-17
  outer loop
   vertex 0.1 8.32667e-17 -0.375
   vertex 0.0992115 0.0125333 -0.375
   vertex 0.1 -8.32667e-17 0.375
  endloop
 endfacet
 facet normal 0 0 -1
  outer loop
   vertex 0.1 8.32667e-17 -0.375
   vertex 0.0992115 -0.0125333 -0.375
   vertex 0.0992115 0.0125333 -0.375
  endloop
 endfacet
 facet normal 0 0 -1
  outer loop
   vertex 0.0992115 0.0125333 -0.375
   vertex 0.0992115 -0.0125333 -0.375
   vertex 0.0968583 0.024869 -0.375
  endloop
 endfacet
 facet normal 0 0 -1
  outer loop
   vertex 0.0992115 -0.0125333 -0.375
   vertex 0.0968583 -0.024869 -0.375
   vertex 0.0968583 0.024869 -0.375
  endloop
 endfacet
 facet normal 0 0 -1
  outer loop
   vertex 0.0968583 0.024869 -0.375
   vertex 0.0968583 -0.024869 -0.375
   vertex 0.0929777 0.0368125 -0.375
  endloop
 endfacet
 facet normal 0 0 -1
  outer loop
   vertex 0.0929777 0.0368125 -0.375
   vertex 0.0968583 -0.024869 -0.375
   vertex 0.0876307 0.0481754 -0.375
  endloop
 endfacet
 facet normal 0 0 -1
  outer loop
   vertex 0.0876307 0.0481754 -0.375
   vertex 0.0968583 -0.024869 -0.375
   vertex 0.0809017 0.0587785 -0.375
  endloop
 endfacet
 facet normal 0 0 -1
  outer loop
   vertex 0.0809017 0.0587785 -0.375
   vertex 0.0968583 -0.024869 -0.375
   vertex 0.0728969 0.0684547 -0.375
  endloop
 endfacet
 facet normal 0 0 -1
  outer loop
   vertex 0.0728969 0.0684547 -0.375
   vertex 0.0968583 -0.024869 -0.375
   vertex 0.0637424 0.0770513 -0.375
  endloop
 endfacet
 facet normal 0 0 -1
  outer loop
   vertex 0.0637424 0.0770513 -0.375
   vertex 0.0968583 -0.024869 -0.375
   vertex 0.0535827 0.0844328 -0.375
  endloop
 endfacet
 facet normal 0 0 -1
  outer loop
   vertex 0.0535827 0.0844328 -0.375
   vertex 0.0968583 -0.024869 -0.375
   vertex 0.0425779 0.0904827 -0.375
  endloop
 endfacet
 facet normal 0 0 -1
  outer loop
   vertex 0.0425779 0.0904827 -0.375
   vertex 0.0968583 -0.024869 -0.375
   vertex 0.0309017 0.0951056 -0.375
  endloop
 endfacet
 facet normal 0 0 -1
  outer loop
   vertex 0.0309017 0.0951056 -0.375
   vertex 0.0968583 -0.024869 -0.375
   vertex 0.0187381 0.0982287 -0.375
  endloop
 endfacet
 facet normal 0 0 -1
  outer loop
   vertex 0.0187381 0.0982287 -0.375
   vertex 0.0968583 -0.024869 -0.375
   vertex 0.00627905 0.0998027 -0.375
  endloop
 endfacet
 facet normal 0 0 -1
  outer loop
   vertex 0.00627905 0.0998027 -0.375
   vertex 0.0968583 -0.024869 -0.375
   vertex -0.00627905 0.0998027 -0.375
  endloop
 endfacet
 facet normal 0 0 -1
  outer loop
   vertex -0.00627905 0.0998027 -0.375
   vertex 0.0968583 -0.024869 -0.375
   vertex -0.0187381 0.0982287 -0.375
  endloop
 endfacet
 facet normal 0 0 -1
  outer loop
   vertex -0.0187381 0.0982287 -0.375
   vertex 0.0968583 -0.024869 -0.375
   vertex -0.0309017 0.0951056 -0.375
  endloop
 endfacet
 facet normal 0 0 -1
  outer loop
   vertex -0.0309017 0.0951056 -0.375
   vertex 0.0968583 -0.024869 -0.375
   vertex -0.0425779 0.0904827 -0.375
  endloop
 endfacet
 facet normal 0 0 -1
  outer loop
   vertex 0.0968583 -0.024869 -0.375
   vertex 0.0929777 -0.0368125 -0.375
   vertex -0.0425779 0.0904827 -0.375
  endloop
 endfacet
 facet normal 0 0 -1
  outer loop
   vertex 0.0929777 -0.0368125 -0.375
   vertex 0.0876307 -0.0481754 -0.375
   vertex -0.0425779 0.0904827 -0.375
  endloop
 endfacet
 facet normal 0 0 -1
  outer loop
   vertex 0.0876307 -0.0481754 -0.375
   vertex 0.0809017 -0.0587785 -0.375
   vertex -0.0425779 0.0904827 -0.375
  endloop
 endfacet
 facet normal 0 0 -1
  outer loop
   vertex 0.0809017 -0.0587785 -0.375
   vertex 0.0728969 -0.0684547 -0.375
   vertex -0.0425779 0.0904827 -0.375
  endloop
 endfacet
 facet normal 0 0 -1
  outer loop
   vertex 0.0728969 -0.0684547 -0.375
   vertex 0.0637424 -0.0770513 -0.375
   vertex -0.0425779 0.0904827 -0.375
  endloop
 endfacet
 facet normal 0 0 -1
  outer loop
   vertex 0.0637424 -0.0770513 -0.375
   vertex 0.0535827 -0.0844328 -0.375
   vertex -0.0425779 0.0904827 -0.375
  endloop
 endfacet
 facet normal 0 0 -1
  outer loop
   vertex 0.0535827 -0.0844328 -0.375
   vertex 0.0425779 -0.0904827 -0.375
   vertex -0.0425779 0.0904827 -0.375
  endloop
 endfacet
 facet normal 0 0 -1
  outer loop
   vertex 0.0425779 -0.0904827 -0.375
   vertex 0.0309017 -0.0951056 -0.375
   vertex -0.0425779 0.0904827 -0.375
  endloop
 endfacet
 facet normal 0 0 -1
  outer loop
   vertex 0.0309017 -0.0951056 -0.375
   vertex 0.0187381 -0.0982287 -0.375
   vertex -0.0425779 0.0904827 -0.375
  endloop
 endfacet
 facet normal 0 0 -1
  outer loop
   vertex 0.0187381 -0.0982287 -0.375
   vertex 0.00627905 -0.0998027 -0.375
   vertex -0.0425779 0.0904827 -0.375
  endloop
 endfacet
 facet normal 0 0 -1
  outer loop
   vertex 0.00627905 -0.0998027 -0.375
   vertex -0.00627905 -0.0998027 -0.375
   vertex -0.0425779 0.0904827 -0.375
  endloop
 endfacet
 facet normal 0 0 -1
  outer loop
   vertex -0.00627905 -0.0998027 -0.375
   vertex -0.0187381 -0.0982287 -0.375
   vertex -0.0425779 0.0904827 -0.375
  endloop
 endfacet
 facet normal 0 0 -1
  outer loop
   vertex -0.0187381 -0.0982287 -0.375
   vertex -0.0309017 -0.0951056 -0.375
   vertex -0.0425779 0.0904827 -0.375
  endloop
 endfacet
 facet normal 0 0 -1
  outer loop
   vertex -0.0309017 -0.0951056 -0.375
   vertex -0.0425779 -0.0904827 -0.375
   vertex -0.0425779 0.0904827 -0.375
  endloop
 endfacet
 facet normal 0 0 -1
  outer loop
   vertex -0.0425779 0.0904827 -0.375
   vertex -0.0425779 -0.0904827 -0.375
   vertex -0.0535827 0.0844328 -0.375
  endloop
 endfacet
 facet normal 0 0 -1
  outer loop
   vertex -0.0535827 0.0844328 -0.375
   vertex -0.0425779 -0.0904827 -0.375
   vertex -0.0637424 0.0770513 -0.375
  endloop
 endfacet
 facet normal 0 0 -1
  outer loop
   vertex -0.0425779 -0.0904827 -0.375
   vertex -0.0535827 -0.0844328 -0.375
   vertex -0.0637424 0.0770513 -0.375
  endloop
 endfacet
 facet normal 0 0 -1
  outer loop
   vertex -0.0535827 -0.0844328 -0.375
   vertex -0.0637424 -0.0770513 -0.375
   vertex -0.0637424 0.0770513 -0.375
  endloop
 endfacet
 facet normal 0 0 -1
  outer loop
   vertex -0.0637424 0.0770513 -0.375
   vertex -0.0637424 -0.0770513 -0.375
   vertex -0.0728969 0.0684547 -0.375
  endloop
 endfacet
 facet normal 0 0 -1
  outer loop
   vertex -0.0728969 0.0684547 -0.375
   vertex -0.0637424 -0.0770513 -0.375
   vertex -0.0809017 0.0587785 -0.375
  endloop
 endfacet
 facet normal 0 0 -1
  outer loop
   vertex -0.0809017 0.0587785 -0.375
   vertex -0.0637424 -0.0770513 -0.375
   vertex -0.0876307 0.0481754 -0.375
  endloop
 endfacet
 facet normal 0 0 -1
  outer loop
   vertex -0.0876307 0.0481754 -0.375
   vertex -0.0637424 -0.0770513 -0.375
   vertex -0.0929777 0.0368125 -0.375
  endloop
 endfacet
 facet normal 0 0 -1
  outer loop
   vertex -0.0637424 -0.0770513 -0.375
   vertex -0.0728969 -0.0684547 -0.375
   vertex -0.0929777 0.0368125 -0.375
  endloop
 endfacet
 facet normal 0 0 -1
  outer loop
   vertex -0.0728969 -0.0684547 -0.375
   vertex -0.0809017 -0.0587785 -0.375
   vertex -0.0929777 0.0368125 -0.375
  endloop
 endfacet
 facet normal 0 0 -1
  outer loop
   vertex -0.0809017 -0.0587785 -0.375
   vertex -0.0876307 -0.0481754 -0.375
   vertex -0.0929777 0.0368125 -0.375
  endloop
 endfacet
 facet normal 0 0 -1
  outer loop
   vertex -0.0876307 -0.0481754 -0.375
   vertex -0.0929777 -0.0368125 -0.375
   vertex -0.0929777 0.0368125 -0.375
  endloop
 endfacet
 facet normal 0 0 -1
  outer loop
   vertex -0.0929777 0.0368125 -0.375
   vertex -0.0929777 -0.0368125 -0.375
   vertex -0.0968583 0.024869 -0.375
  endloop
 endfacet
 facet normal 0 0 -1
  outer loop
   vertex -0.0968583 0.024869 -0.375
   vertex -0.0929777 -0.0368125 -0.375
   vertex -0.0992115 0.0125333 -0.375
  endloop
 endfacet
 facet normal 0 0 -1
  outer loop
   vertex -0.0992115 0.0125333 -0.375
   vertex -0.0929777 -0.0368125 -0.375
   vertex -0.1 1.15429e-16 -0.375
  endloop
 endfacet
 facet normal 0 0 -1
  outer loop
   vertex -0.0929777 -0.0368125 -0.375
   vertex -0.0968583 -0.024869 -0.375
   vertex -0.1 1.15429e-16 -0.375
  endloop
 endfacet
 facet normal 0 0 -1
  outer loop
   vertex -0.0992115 -0.0125333 -0.375
   vertex -0.1 1.15429e-16 -0.375
   vertex -0.0968583 -0.024869 -0.375
  endloop
 endfacet
 facet normal 0 -0 1
  outer loop
   vertex -0.1 -5.11043e-17 0.375
   vertex -0.0992115 -0.0125333 0.375
   vertex -0.0992115 0.0125333 0.375
  endloop
 endfacet
 facet normal 0 0 1
  outer loop
   vertex -0.0992115 0.0125333 0.375
   vertex -0.0992115 -0.0125333 0.375
   vertex -0.0968583 0.024869 0.375
  endloop
 endfacet
 facet normal 0 -0 1
  outer loop
   vertex -0.0992115 -0.0125333 0.375
   vertex -0.0968583 -0.024869 0.375
   vertex -0.0968583 0.024869 0.375
  endloop
 endfacet
 facet normal 0 0 1
  outer loop
   vertex -0.0968583 0.024869 0.375
   vertex -0.0968583 -0.024869 0.375
   vertex -0.0929777 0.0368125 0.375
  endloop
 endfacet
 facet normal 0 0 1
  outer loop
   vertex -0.0929777 0.0368125 0.375
   vertex -0.0968583 -0.024869 0.375
   vertex -0.0876307 0.0481754 0.375
  endloop
 endfacet
 facet normal 0 0 1
  outer loop
   vertex -0.0876307 0.0481754 0.375
   vertex -0.0968583 -0.024869 0.375
   vertex -0.0809017 0.0587785 0.375
  endloop
 endfacet
 facet normal 0 0 1
  outer loop
   vertex -0.0809017 0.0587785 0.375
   vertex -0.0968583 -0.024869 0.375
   vertex -0.0728969 0.0684547 0.375
  endloop
 endfacet
 facet normal 0 0 1
  outer loop
   vertex -0.0728969 0.0684547 0.375
   vertex -0.0968583 -0.024869 0.375
   vertex -0.0637424 0.0770513 0.375
  endloop
 endfacet
 facet normal 0 0 1
  outer loop
   vertex -0.0637424 0.0770513 0.375
   vertex -0.0968583 -0.024869 0.375
   vertex -0.0535827 0.0844328 0.375
  endloop
 endfacet
 facet normal 0 0 1
  outer loop
   vertex -0.0535827 0.0844328 0.375
   vertex -0.0968583 -0.024869 0.375
   vertex -0.0425779 0.0904827 0.375
  endloop
 endfacet
 facet normal 0 0 1
  outer loop
   vertex -0.0425779 0.0904827 0.375
   vertex -0.0968583 -0.024869 0.375
   vertex -0.0309017 0.0951056 0.375
  endloop
 endfacet
 facet normal 0 0 1
  outer loop
   vertex -0.0309017 0.0951056 0.375
   vertex -0.0968583 -0.024869 0.375
   vertex -0.0187381 0.0982287 0.375
  endloop
 endfacet
 facet normal 0 0 1
  outer loop
   vertex -0.0187381 0.0982287 0.375
   vertex -0.0968583 -0.024869 0.375
   vertex -0.00627905 0.0998027 0.375
  endloop
 endfacet
 facet normal 0 0 1
  outer loop
   vertex -0.00627905 0.0998027 0.375
   vertex -0.0968583 -0.024869 0.375
   vertex 0.00627905 0.0998027 0.375
  endloop
 endfacet
 facet normal 0 0 1
  outer loop
   vertex 0.00627905 0.0998027 0.375
   vertex -0.0968583 -0.024869 0.375
   vertex 0.0187381 0.0982287 0.375
  endloop
 endfacet
 facet normal 0 0 1
  outer loop
   vertex 0.0187381 0.0982287 0.375
   vertex -0.0968583 -0.024869 0.375
   vertex 0.0309017 0.0951056 0.375
  endloop
 endfacet
 facet normal 0 0 1
  outer loop
   vertex 0.0309017 0.0951056 0.375
   vertex -0.0968583 -0.024869 0.375
   vertex 0.0425779 0.0904827 0.375
  endloop
 endfacet
 facet normal 0 -0 1
  outer loop
   vertex -0.0968583 -0.024869 0.375
   vertex -0.0929777 -0.0368125 0.375
   vertex 0.0425779 0.0904827 0.375
  endloop
 endfacet
 facet normal 0 -0 1
  outer loop
   vertex -0.0929777 -0.0368125 0.375
   vertex -0.0876307 -0.0481754 0.375
   vertex 0.0425779 0.0904827 0.375
  endloop
 endfacet
 facet normal 0 -0 1
  outer loop
   vertex -0.0876307 -0.0481754 0.375
   vertex -0.0809017 -0.0587785 0.375
   vertex 0.0425779 0.0904827 0.375
  endloop
 endfacet
 facet normal 0 -0 1
  outer loop
   vertex -0.0809017 -0.0587785 0.375
   vertex -0.0728969 -0.0684547 0.375
   vertex 0.0425779 0.0904827 0.375
  endloop
 endfacet
 facet normal 0 -0 1
  outer loop
   vertex -0.0728969 -0.0684547 0.375
   vertex -0.0637424 -0.0770513 0.375
   vertex 0.0425779 0.0904827 0.375
  endloop
 endfacet
 facet normal 0 -0 1
  outer loop
   vertex -0.0637424 -0.0770513 0.375
   vertex -0.0535827 -0.0844328 0.375
   vertex 0.0425779 0.0904827 0.375
  endloop
 endfacet
 facet normal 0 -0 1
  outer loop
   vertex -0.0535827 -0.0844328 0.375
   vertex -0.0425779 -0.0904827 0.375
   vertex 0.0425779 0.0904827 0.375
  endloop
 endfacet
 facet normal 0 -0 1
  outer loop
   vertex -0.0425779 -0.0904827 0.375
   vertex -0.0309017 -0.0951056 0.375
   vertex 0.0425779 0.0904827 0.375
  endloop
 endfacet
 facet normal 0 -0 1
  outer loop
   vertex -0.0309017 -0.0951056 0.375
   vertex -0.0187381 -0.0982287 0.375
   vertex 0.0425779 0.0904827 0.375
  endloop
 endfacet
 facet normal 0 -0 1
  outer loop
   vertex -0.0187381 -0.0982287 0.375
   vertex -0.00627905 -0.0998027 0.375
   vertex 0.0425779 0.0904827 0.375
  endloop
 endfacet
 facet normal 0 -0 1
  outer loop
   vertex -0.00627905 -0.0998027 0.375
   vertex 0.00627905 -0.0998027 0.375
   vertex 0.0425779 0.0904827 0.375
  endloop
 endfacet
 facet normal 0 -0 1
  outer loop
   vertex 0.00627905 -0.0998027 0.375
   vertex 0.0187381 -0.0982287 0.375
   vertex 0.0425779 0.0904827 0.375
  endloop
 endfacet
 facet normal 0 -0 1
  outer loop
   vertex 0.0187381 -0.0982287 0.375
   vertex 0.0309017 -0.0951056 0.375
   vertex 0.0425779 0.0904827 0.375
  endloop
 endfacet
 facet normal 0 -0 1
  outer loop
   vertex 0.0309017 -0.0951056 0.375
   vertex 0.0425779 -0.0904827 0.375
   vertex 0.0425779 0.0904827 0.375
  endloop
 endfacet
 facet normal 0 0 1
  outer loop
   vertex 0.0425779 0.0904827 0.375
   vertex 0.0425779 -0.0904827 0.375
   vertex 0.0535827 0.0844328 0.375
  endloop
 endfacet
 facet normal 0 0 1
  outer loop
   vertex 0.0535827 0.0844328 0.375
   vertex 0.0425779 -0.0904827 0.375
   vertex 0.0637424 0.0770513 0.375
  endloop
 endfacet
 facet normal 0 -0 1
  outer loop
   vertex 0.0425779 -0.0904827 0.375
   vertex 0.0535827 -0.0844328 0.375
   vertex 0.0637424 0.0770513 0.375
  endloop
 endfacet
 facet normal 0 -0 1
  outer loop
   vertex 0.0535827 -0.0844328 0.375
   vertex 0.0637424 -0.0770513 0.375
   vertex 0.0637424 0.0770513 0.375
  endloop
 endfacet
 facet normal 0 0 1
  outer loop
   vertex 0.0637424 0.0770513 0.375
   vertex 0.0637424 -0.0770513 0.375
   vertex 0.0728969 0.0684547 0.375
  endloop
 endfacet
 facet normal 0 0 1
  outer loop
   vertex 0.0728969 0.0684547 0.375
   vertex 0.0637424 -0.0770513 0.375
   vertex 0.0809017 0.0587785 0.375
  endloop
 endfacet
 facet normal 0 0 1
  outer loop
   vertex 0.0809017 0.0587785 0.375
   vertex 0.0637424 -0.0770513 0.375
   vertex 0.0876307 0.0481754 0.375
  endloop
 endfacet
 facet normal 0 0 1
  outer loop
   vertex 0.0876307 0.0481754 0.375
   vertex 0.0637424 -0.0770513 0.375
   vertex 0.0929777 0.0368125 0.375
  endloop
 endfacet
 facet normal 0 -0 1
  outer loop
   vertex 0.0637424 -0.0770513 0.375
   vertex 0.0728969 -0.0684547 0.375
   vertex 0.0929777 0.0368125 0.375
  endloop
 endfacet
 facet normal 0 -0 1
  outer loop
   vertex 0.0728969 -0.0684547 0.375
   vertex 0.0809017 -0.0587785 0.375
   vertex 0.0929777 0.0368125 0.375
  endloop
 endfacet
 facet normal 0 -0 1
  outer loop
   vertex 0.0809017 -0.0587785 0.375
   vertex 0.0876307 -0.0481754 0.375
   vertex 0.0929777 0.0368125 0.375
  endloop
 endfacet
 facet normal 0 -0 1
  outer loop
   vertex 0.0876307 -0.0481754 0.375
   vertex 0.0929777 -0.0368125 0.375
   vertex 0.0929777 0.0368125 0.375
  endloop
 endfacet
 facet normal 0 0 1
  outer loop
   vertex 0.0929777 0.0368125 0.375
   vertex 0.0929777 -0.0368125 0.375
   vertex 0.0968583 0.024869 0.375
  endloop
 endfacet
 facet normal 0 0 1
  outer loop
   vertex 0.0968583 0.024869 0.375
   vertex 0.0929777 -0.0368125 0.375
   vertex 0.0992115 0.0125333 0.375
  endloop
 endfacet
 facet normal 0 0 1
  outer loop
   vertex 0.0992115 0.0125333 0.375
   vertex 0.0929777 -0.0368125 0.375
   vertex 0.1 -8.32667e-17 0.375
  endloop
 endfacet
 facet normal 0 -0 1
  outer loop
   vertex 0.0929777 -0.0368125 0.375
   vertex 0.0968583 -0.024869 0.375
   vertex 0.1 -8.32667e-17 0.375
  endloop
 endfacet
 facet normal 0 0 1
  outer loop
   vertex 0.0992115 -0.0125333 0.375
   vertex 0.1 -8.32667e-17 0.375
   vertex 0.0968583 -0.024869 0.375
  endloop
 endfacet
endsolid
