solid Flap
   facet normal -9.908402e-001 0.000000e+000 -1.350396e-001
      outer loop
         vertex -1.495166e-002 -3.800000e-001 -1.645033e-001
         vertex -1.495166e-002 3.800000e-001 -1.645033e-001
         vertex -1.454872e-002 3.800000e-001 -1.669517e-001
      endloop
   endfacet
   facet normal -9.818587e-001 0.000000e+000 -1.896142e-001
      outer loop
         vertex -1.495166e-002 -3.800000e-001 -1.645033e-001
         vertex -1.454872e-002 3.800000e-001 -1.669517e-001
         vertex -1.454872e-002 -3.800000e-001 -1.669517e-001
      endloop
   endfacet
   facet normal -9.550217e-001 0.000000e+000 -2.965360e-001
      outer loop
         vertex -1.454872e-002 -3.800000e-001 -1.669517e-001
         vertex -1.454872e-002 3.800000e-001 -1.669517e-001
         vertex -1.374767e-002 3.800000e-001 -1.693001e-001
      endloop
   endfacet
   facet normal -9.371662e-001 0.000000e+000 -3.488832e-001
      outer loop
         vertex -1.454872e-002 -3.800000e-001 -1.669517e-001
         vertex -1.374767e-002 3.800000e-001 -1.693001e-001
         vertex -1.374767e-002 -3.800000e-001 -1.693001e-001
      endloop
   endfacet
   facet normal -8.930699e-001 0.000000e+000 -4.499180e-001
      outer loop
         vertex -1.374767e-002 -3.800000e-001 -1.693001e-001
         vertex -1.374767e-002 3.800000e-001 -1.693001e-001
         vertex -1.257043e-002 3.800000e-001 -1.714844e-001
      endloop
   endfacet
   facet normal -8.668291e-001 0.000000e+000 -4.986054e-001
      outer loop
         vertex -1.374767e-002 -3.800000e-001 -1.693001e-001
         vertex -1.257043e-002 3.800000e-001 -1.714844e-001
         vertex -1.257043e-002 -3.800000e-001 -1.714844e-001
      endloop
   endfacet
   facet normal -8.066801e-001 0.000000e+000 -5.909883e-001
      outer loop
         vertex -1.257043e-002 -3.800000e-001 -1.714844e-001
         vertex -1.257043e-002 3.800000e-001 -1.714844e-001
         vertex -1.104921e-002 3.800000e-001 -1.734447e-001
      endloop
   endfacet
   facet normal -7.727720e-001 0.000000e+000 -6.346837e-001
      outer loop
         vertex -1.257043e-002 -3.800000e-001 -1.714844e-001
         vertex -1.104921e-002 3.800000e-001 -1.734447e-001
         vertex -1.104921e-002 -3.800000e-001 -1.734447e-001
      endloop
   endfacet
   facet normal -6.982163e-001 0.000000e+000 -7.158869e-001
      outer loop
         vertex -1.104921e-002 -3.800000e-001 -1.734447e-001
         vertex -1.104921e-002 3.800000e-001 -1.734447e-001
         vertex -9.225640e-003 3.800000e-001 -1.751274e-001
      endloop
   endfacet
   facet normal -6.575688e-001 0.000000e+000 -7.533945e-001
      outer loop
         vertex -1.104921e-002 -3.800000e-001 -1.734447e-001
         vertex -9.225640e-003 3.800000e-001 -1.751274e-001
         vertex -9.225640e-003 -3.800000e-001 -1.751274e-001
      endloop
   endfacet
   facet normal -5.706465e-001 0.000000e+000 -8.211958e-001
      outer loop
         vertex -9.225640e-003 -3.800000e-001 -1.751274e-001
         vertex -9.225640e-003 3.800000e-001 -1.751274e-001
         vertex -7.149618e-003 3.800000e-001 -1.764865e-001
      endloop
   endfacet
   facet normal -5.243717e-001 0.000000e+000 -8.514894e-001
      outer loop
         vertex -9.225640e-003 -3.800000e-001 -1.751274e-001
         vertex -7.149618e-003 3.800000e-001 -1.764865e-001
         vertex -7.149618e-003 -3.800000e-001 -1.764865e-001
      endloop
   endfacet
   facet normal -4.274614e-001 0.000000e+000 -9.040336e-001
      outer loop
         vertex -7.149618e-003 -3.800000e-001 -1.764865e-001
         vertex -7.149618e-003 3.800000e-001 -1.764865e-001
         vertex -4.877954e-003 3.800000e-001 -1.774847e-001
      endloop
   endfacet
   facet normal -3.768259e-001 0.000000e+000 -9.262841e-001
      outer loop
         vertex -7.149618e-003 -3.800000e-001 -1.764865e-001
         vertex -4.877954e-003 3.800000e-001 -1.774847e-001
         vertex -4.877954e-003 -3.800000e-001 -1.774847e-001
      endloop
   endfacet
   facet normal -2.725793e-001 0.000000e+000 -9.621333e-001
      outer loop
         vertex -4.877954e-003 -3.800000e-001 -1.774847e-001
         vertex -4.877954e-003 3.800000e-001 -1.774847e-001
         vertex -2.472810e-003 3.800000e-001 -1.780947e-001
      endloop
   endfacet
   facet normal -2.189685e-001 0.000000e+000 -9.757320e-001
      outer loop
         vertex -4.877954e-003 -3.800000e-001 -1.774847e-001
         vertex -2.472810e-003 3.800000e-001 -1.780947e-001
         vertex -2.472810e-003 -3.800000e-001 -1.780947e-001
      endloop
   endfacet
   facet normal -1.102384e-001 0.000000e+000 -9.939052e-001
      outer loop
         vertex -2.472810e-003 -3.800000e-001 -1.780947e-001
         vertex -2.472810e-003 3.800000e-001 -1.780947e-001
         vertex 1.836970e-018 3.800000e-001 -1.783000e-001
      endloop
   endfacet
   facet normal -5.511918e-002 0.000000e+000 -9.984798e-001
      outer loop
         vertex -2.472810e-003 -3.800000e-001 -1.780947e-001
         vertex 1.836970e-018 3.800000e-001 -1.783000e-001
         vertex 1.836970e-018 -3.800000e-001 -1.783000e-001
      endloop
   endfacet
   facet normal 5.511918e-002 0.000000e+000 -9.984798e-001
      outer loop
         vertex 1.836970e-018 -3.800000e-001 -1.783000e-001
         vertex 1.836970e-018 3.800000e-001 -1.783000e-001
         vertex 2.472810e-003 3.800000e-001 -1.780947e-001
      endloop
   endfacet
   facet normal 1.102384e-001 0.000000e+000 -9.939052e-001
      outer loop
         vertex 1.836970e-018 -3.800000e-001 -1.783000e-001
         vertex 2.472810e-003 3.800000e-001 -1.780947e-001
         vertex 2.472810e-003 -3.800000e-001 -1.780947e-001
      endloop
   endfacet
   facet normal 2.189685e-001 0.000000e+000 -9.757320e-001
      outer loop
         vertex 2.472810e-003 -3.800000e-001 -1.780947e-001
         vertex 2.472810e-003 3.800000e-001 -1.780947e-001
         vertex 4.877954e-003 3.800000e-001 -1.774847e-001
      endloop
   endfacet
   facet normal 2.725793e-001 0.000000e+000 -9.621333e-001
      outer loop
         vertex 2.472810e-003 -3.800000e-001 -1.780947e-001
         vertex 4.877954e-003 3.800000e-001 -1.774847e-001
         vertex 4.877954e-003 -3.800000e-001 -1.774847e-001
      endloop
   endfacet
   facet normal 3.768259e-001 0.000000e+000 -9.262841e-001
      outer loop
         vertex 4.877954e-003 -3.800000e-001 -1.774847e-001
         vertex 4.877954e-003 3.800000e-001 -1.774847e-001
         vertex 7.149618e-003 3.800000e-001 -1.764865e-001
      endloop
   endfacet
   facet normal 4.274614e-001 0.000000e+000 -9.040336e-001
      outer loop
         vertex 4.877954e-003 -3.800000e-001 -1.774847e-001
         vertex 7.149618e-003 3.800000e-001 -1.764865e-001
         vertex 7.149618e-003 -3.800000e-001 -1.764865e-001
      endloop
   endfacet
   facet normal 5.243717e-001 0.000000e+000 -8.514894e-001
      outer loop
         vertex 7.149618e-003 -3.800000e-001 -1.764865e-001
         vertex 7.149618e-003 3.800000e-001 -1.764865e-001
         vertex 9.225640e-003 3.800000e-001 -1.751274e-001
      endloop
   endfacet
   facet normal 5.706465e-001 0.000000e+000 -8.211958e-001
      outer loop
         vertex 7.149618e-003 -3.800000e-001 -1.764865e-001
         vertex 9.225640e-003 3.800000e-001 -1.751274e-001
         vertex 9.225640e-003 -3.800000e-001 -1.751274e-001
      endloop
   endfacet
   facet normal 6.575688e-001 0.000000e+000 -7.533945e-001
      outer loop
         vertex 9.225640e-003 -3.800000e-001 -1.751274e-001
         vertex 9.225640e-003 3.800000e-001 -1.751274e-001
         vertex 1.104921e-002 3.800000e-001 -1.734447e-001
      endloop
   endfacet
   facet normal 6.982163e-001 0.000000e+000 -7.158868e-001
      outer loop
         vertex 9.225640e-003 -3.800000e-001 -1.751274e-001
         vertex 1.104921e-002 3.800000e-001 -1.734447e-001
         vertex 1.104921e-002 -3.800000e-001 -1.734447e-001
      endloop
   endfacet
   facet normal 7.727720e-001 0.000000e+000 -6.346837e-001
      outer loop
         vertex 1.104921e-002 -3.800000e-001 -1.734447e-001
         vertex 1.104921e-002 3.800000e-001 -1.734447e-001
         vertex 1.257043e-002 3.800000e-001 -1.714844e-001
      endloop
   endfacet
   facet normal 8.066801e-001 0.000000e+000 -5.909883e-001
      outer loop
         vertex 1.104921e-002 -3.800000e-001 -1.734447e-001
         vertex 1.257043e-002 3.800000e-001 -1.714844e-001
         vertex 1.257043e-002 -3.800000e-001 -1.714844e-001
      endloop
   endfacet
   facet normal 8.668291e-001 0.000000e+000 -4.986054e-001
      outer loop
         vertex 1.257043e-002 -3.800000e-001 -1.714844e-001
         vertex 1.257043e-002 3.800000e-001 -1.714844e-001
         vertex 1.374767e-002 3.800000e-001 -1.693001e-001
      endloop
   endfacet
   facet normal 8.930699e-001 0.000000e+000 -4.499180e-001
      outer loop
         vertex 1.257043e-002 -3.800000e-001 -1.714844e-001
         vertex 1.374767e-002 3.800000e-001 -1.693001e-001
         vertex 1.374767e-002 -3.800000e-001 -1.693001e-001
      endloop
   endfacet
   facet normal 9.371662e-001 0.000000e+000 -3.488832e-001
      outer loop
         vertex 1.374767e-002 -3.800000e-001 -1.693001e-001
         vertex 1.374767e-002 3.800000e-001 -1.693001e-001
         vertex 1.454872e-002 3.800000e-001 -1.669517e-001
      endloop
   endfacet
   facet normal 9.550217e-001 0.000000e+000 -2.965360e-001
      outer loop
         vertex 1.374767e-002 -3.800000e-001 -1.693001e-001
         vertex 1.454872e-002 3.800000e-001 -1.669517e-001
         vertex 1.454872e-002 -3.800000e-001 -1.669517e-001
      endloop
   endfacet
   facet normal 9.818587e-001 0.000000e+000 -1.896142e-001
      outer loop
         vertex 1.454872e-002 -3.800000e-001 -1.669517e-001
         vertex 1.454872e-002 3.800000e-001 -1.669517e-001
         vertex 1.495166e-002 3.800000e-001 -1.645033e-001
      endloop
   endfacet
   facet normal 9.908402e-001 0.000000e+000 -1.350396e-001
      outer loop
         vertex 1.454872e-002 -3.800000e-001 -1.669517e-001
         vertex 1.495166e-002 3.800000e-001 -1.645033e-001
         vertex 1.495166e-002 -3.800000e-001 -1.645033e-001
      endloop
   endfacet
   facet normal 9.967772e-001 0.000000e+000 -8.022001e-002
      outer loop
         vertex 6.170204e-002 3.800000e-001 4.163956e-001
         vertex 6.170204e-002 -3.800000e-001 4.163956e-001
         vertex 1.495166e-002 3.800000e-001 -1.645033e-001
      endloop
   endfacet
   facet normal 9.967772e-001 0.000000e+000 -8.022001e-002
      outer loop
         vertex 1.495166e-002 3.800000e-001 -1.645033e-001
         vertex 6.170204e-002 -3.800000e-001 4.163956e-001
         vertex 1.495166e-002 -3.800000e-001 -1.645033e-001
      endloop
   endfacet
   facet normal 9.996793e-001 0.000000e+000 -2.532254e-002
      outer loop
         vertex 6.170204e-002 -3.800000e-001 4.163956e-001
         vertex 6.170204e-002 3.800000e-001 4.163956e-001
         vertex 6.169463e-002 3.800000e-001 4.196940e-001
      endloop
   endfacet
   facet normal 9.995553e-001 0.000000e+000 2.981848e-002
      outer loop
         vertex 6.170204e-002 -3.800000e-001 4.163956e-001
         vertex 6.169463e-002 3.800000e-001 4.196940e-001
         vertex 6.169463e-002 -3.800000e-001 4.196940e-001
      endloop
   endfacet
   facet normal 9.902460e-001 0.000000e+000 1.393302e-001
      outer loop
         vertex 6.169463e-002 -3.800000e-001 4.196940e-001
         vertex 6.169463e-002 3.800000e-001 4.196940e-001
         vertex 6.114517e-002 3.800000e-001 4.229464e-001
      endloop
   endfacet
   facet normal 9.810606e-001 0.000000e+000 1.937010e-001
      outer loop
         vertex 6.169463e-002 -3.800000e-001 4.196940e-001
         vertex 6.114517e-002 3.800000e-001 4.229464e-001
         vertex 6.114517e-002 -3.800000e-001 4.229464e-001
      endloop
   endfacet
   facet normal 9.538784e-001 0.000000e+000 3.001933e-001
      outer loop
         vertex 6.114517e-002 -3.800000e-001 4.229464e-001
         vertex 6.114517e-002 3.800000e-001 4.229464e-001
         vertex 6.006863e-002 3.800000e-001 4.260643e-001
      endloop
   endfacet
   facet normal 9.358816e-001 0.000000e+000 3.523149e-001
      outer loop
         vertex 6.114517e-002 -3.800000e-001 4.229464e-001
         vertex 6.006863e-002 3.800000e-001 4.260643e-001
         vertex 6.006863e-002 -3.800000e-001 4.260643e-001
      endloop
   endfacet
   facet normal 8.915657e-001 0.000000e+000 4.528912e-001
      outer loop
         vertex 6.006863e-002 -3.800000e-001 4.260643e-001
         vertex 6.006863e-002 3.800000e-001 4.260643e-001
         vertex 5.849427e-002 3.800000e-001 4.289627e-001
      endloop
   endfacet
   facet normal 8.652469e-001 0.000000e+000 5.013461e-001
      outer loop
         vertex 6.006863e-002 -3.800000e-001 4.260643e-001
         vertex 5.849427e-002 3.800000e-001 4.289627e-001
         vertex 5.849427e-002 -3.800000e-001 4.289627e-001
      endloop
   endfacet
   facet normal 8.050030e-001 0.000000e+000 5.932707e-001
      outer loop
         vertex 5.849427e-002 -3.800000e-001 4.289627e-001
         vertex 5.849427e-002 3.800000e-001 4.289627e-001
         vertex 5.646493e-002 3.800000e-001 4.315630e-001
      endloop
   endfacet
   facet normal 7.710779e-001 0.000000e+000 6.367407e-001
      outer loop
         vertex 5.849427e-002 -3.800000e-001 4.289627e-001
         vertex 5.646493e-002 3.800000e-001 4.315630e-001
         vertex 5.646493e-002 -3.800000e-001 4.315630e-001
      endloop
   endfacet
   facet normal 6.965445e-001 0.000000e+000 7.175136e-001
      outer loop
         vertex 5.646493e-002 -3.800000e-001 4.315630e-001
         vertex 5.646493e-002 3.800000e-001 4.315630e-001
         vertex 5.403581e-002 3.800000e-001 4.337944e-001
      endloop
   endfacet
   facet normal 6.559361e-001 0.000000e+000 7.548164e-001
      outer loop
         vertex 5.646493e-002 -3.800000e-001 4.315630e-001
         vertex 5.403581e-002 3.800000e-001 4.337944e-001
         vertex 5.403581e-002 -3.800000e-001 4.337944e-001
      endloop
   endfacet
   facet normal 5.691403e-001 0.000000e+000 8.222404e-001
      outer loop
         vertex 5.403581e-002 -3.800000e-001 4.337944e-001
         vertex 5.403581e-002 3.800000e-001 4.337944e-001
         vertex 5.127295e-002 3.800000e-001 4.355962e-001
      endloop
   endfacet
   facet normal 5.229531e-001 0.000000e+000 8.523614e-001
      outer loop
         vertex 5.403581e-002 -3.800000e-001 4.337944e-001
         vertex 5.127295e-002 3.800000e-001 4.355962e-001
         vertex 5.127295e-002 -3.800000e-001 4.355962e-001
      endloop
   endfacet
   facet normal 4.262559e-001 0.000000e+000 9.046026e-001
      outer loop
         vertex 5.127295e-002 -3.800000e-001 4.355962e-001
         vertex 5.127295e-002 3.800000e-001 4.355962e-001
         vertex 4.825153e-002 3.800000e-001 4.369194e-001
      endloop
   endfacet
   facet normal 3.757460e-001 0.000000e+000 9.267227e-001
      outer loop
         vertex 5.127295e-002 -3.800000e-001 4.355962e-001
         vertex 4.825153e-002 3.800000e-001 4.369194e-001
         vertex 4.825153e-002 -3.800000e-001 4.369194e-001
      endloop
   endfacet
   facet normal 2.717774e-001 0.000000e+000 9.623601e-001
      outer loop
         vertex 4.825153e-002 -3.800000e-001 4.369194e-001
         vertex 4.825153e-002 3.800000e-001 4.369194e-001
         vertex 4.505372e-002 3.800000e-001 4.377280e-001
      endloop
   endfacet
   facet normal 2.183187e-001 0.000000e+000 9.758775e-001
      outer loop
         vertex 4.825153e-002 -3.800000e-001 4.369194e-001
         vertex 4.505372e-002 3.800000e-001 4.377280e-001
         vertex 4.505372e-002 -3.800000e-001 4.377280e-001
      endloop
   endfacet
   facet normal 1.099067e-001 0.000000e+000 9.939419e-001
      outer loop
         vertex 4.505372e-002 -3.800000e-001 4.377280e-001
         vertex 4.505372e-002 3.800000e-001 4.377280e-001
         vertex 4.176650e-002 3.800000e-001 4.380000e-001
      endloop
   endfacet
   facet normal 5.495336e-002 0.000000e+000 9.984889e-001
      outer loop
         vertex 4.505372e-002 -3.800000e-001 4.377280e-001
         vertex 4.176650e-002 3.800000e-001 4.380000e-001
         vertex 4.176650e-002 -3.800000e-001 4.380000e-001
      endloop
   endfacet
   facet normal 0.000000e+000 0.000000e+000 1.000000e+000
      outer loop
         vertex -4.176650e-002 3.800000e-001 4.380000e-001
         vertex -4.176650e-002 -3.800000e-001 4.380000e-001
         vertex 4.176650e-002 3.800000e-001 4.380000e-001
      endloop
   endfacet
   facet normal 0.000000e+000 0.000000e+000 1.000000e+000
      outer loop
         vertex 4.176650e-002 3.800000e-001 4.380000e-001
         vertex -4.176650e-002 -3.800000e-001 4.380000e-001
         vertex 4.176650e-002 -3.800000e-001 4.380000e-001
      endloop
   endfacet
   facet normal -5.495336e-002 0.000000e+000 9.984889e-001
      outer loop
         vertex -4.176650e-002 -3.800000e-001 4.380000e-001
         vertex -4.176650e-002 3.800000e-001 4.380000e-001
         vertex -4.505372e-002 3.800000e-001 4.377280e-001
      endloop
   endfacet
   facet normal -1.099067e-001 0.000000e+000 9.939419e-001
      outer loop
         vertex -4.176650e-002 -3.800000e-001 4.380000e-001
         vertex -4.505372e-002 3.800000e-001 4.377280e-001
         vertex -4.505372e-002 -3.800000e-001 4.377280e-001
      endloop
   endfacet
   facet normal -2.183187e-001 0.000000e+000 9.758775e-001
      outer loop
         vertex -4.505372e-002 -3.800000e-001 4.377280e-001
         vertex -4.505372e-002 3.800000e-001 4.377280e-001
         vertex -4.825153e-002 3.800000e-001 4.369194e-001
      endloop
   endfacet
   facet normal -2.717774e-001 0.000000e+000 9.623601e-001
      outer loop
         vertex -4.505372e-002 -3.800000e-001 4.377280e-001
         vertex -4.825153e-002 3.800000e-001 4.369194e-001
         vertex -4.825153e-002 -3.800000e-001 4.369194e-001
      endloop
   endfacet
   facet normal -3.757460e-001 0.000000e+000 9.267227e-001
      outer loop
         vertex -4.825153e-002 -3.800000e-001 4.369194e-001
         vertex -4.825153e-002 3.800000e-001 4.369194e-001
         vertex -5.127295e-002 3.800000e-001 4.355962e-001
      endloop
   endfacet
   facet normal -4.262559e-001 0.000000e+000 9.046026e-001
      outer loop
         vertex -4.825153e-002 -3.800000e-001 4.369194e-001
         vertex -5.127295e-002 3.800000e-001 4.355962e-001
         vertex -5.127295e-002 -3.800000e-001 4.355962e-001
      endloop
   endfacet
   facet normal -5.229531e-001 0.000000e+000 8.523614e-001
      outer loop
         vertex -5.127295e-002 -3.800000e-001 4.355962e-001
         vertex -5.127295e-002 3.800000e-001 4.355962e-001
         vertex -5.403581e-002 3.800000e-001 4.337944e-001
      endloop
   endfacet
   facet normal -5.691403e-001 0.000000e+000 8.222404e-001
      outer loop
         vertex -5.127295e-002 -3.800000e-001 4.355962e-001
         vertex -5.403581e-002 3.800000e-001 4.337944e-001
         vertex -5.403581e-002 -3.800000e-001 4.337944e-001
      endloop
   endfacet
   facet normal -6.559361e-001 0.000000e+000 7.548164e-001
      outer loop
         vertex -5.403581e-002 -3.800000e-001 4.337944e-001
         vertex -5.403581e-002 3.800000e-001 4.337944e-001
         vertex -5.646493e-002 3.800000e-001 4.315630e-001
      endloop
   endfacet
   facet normal -6.965445e-001 0.000000e+000 7.175136e-001
      outer loop
         vertex -5.403581e-002 -3.800000e-001 4.337944e-001
         vertex -5.646493e-002 3.800000e-001 4.315630e-001
         vertex -5.646493e-002 -3.800000e-001 4.315630e-001
      endloop
   endfacet
   facet normal -7.710779e-001 0.000000e+000 6.367407e-001
      outer loop
         vertex -5.646493e-002 -3.800000e-001 4.315630e-001
         vertex -5.646493e-002 3.800000e-001 4.315630e-001
         vertex -5.849427e-002 3.800000e-001 4.289627e-001
      endloop
   endfacet
   facet normal -8.050030e-001 0.000000e+000 5.932707e-001
      outer loop
         vertex -5.646493e-002 -3.800000e-001 4.315630e-001
         vertex -5.849427e-002 3.800000e-001 4.289627e-001
         vertex -5.849427e-002 -3.800000e-001 4.289627e-001
      endloop
   endfacet
   facet normal -8.652469e-001 0.000000e+000 5.013460e-001
      outer loop
         vertex -5.849427e-002 -3.800000e-001 4.289627e-001
         vertex -5.849427e-002 3.800000e-001 4.289627e-001
         vertex -6.006863e-002 3.800000e-001 4.260643e-001
      endloop
   endfacet
   facet normal -8.915657e-001 0.000000e+000 4.528912e-001
      outer loop
         vertex -5.849427e-002 -3.800000e-001 4.289627e-001
         vertex -6.006863e-002 3.800000e-001 4.260643e-001
         vertex -6.006863e-002 -3.800000e-001 4.260643e-001
      endloop
   endfacet
   facet normal -9.358816e-001 0.000000e+000 3.523149e-001
      outer loop
         vertex -6.006863e-002 -3.800000e-001 4.260643e-001
         vertex -6.006863e-002 3.800000e-001 4.260643e-001
         vertex -6.114517e-002 3.800000e-001 4.229464e-001
      endloop
   endfacet
   facet normal -9.538784e-001 0.000000e+000 3.001933e-001
      outer loop
         vertex -6.006863e-002 -3.800000e-001 4.260643e-001
         vertex -6.114517e-002 3.800000e-001 4.229464e-001
         vertex -6.114517e-002 -3.800000e-001 4.229464e-001
      endloop
   endfacet
   facet normal -9.810606e-001 0.000000e+000 1.937010e-001
      outer loop
         vertex -6.114517e-002 -3.800000e-001 4.229464e-001
         vertex -6.114517e-002 3.800000e-001 4.229464e-001
         vertex -6.169463e-002 3.800000e-001 4.196940e-001
      endloop
   endfacet
   facet normal -9.902460e-001 0.000000e+000 1.393302e-001
      outer loop
         vertex -6.114517e-002 -3.800000e-001 4.229464e-001
         vertex -6.169463e-002 3.800000e-001 4.196940e-001
         vertex -6.169463e-002 -3.800000e-001 4.196940e-001
      endloop
   endfacet
   facet normal -9.995553e-001 0.000000e+000 2.981848e-002
      outer loop
         vertex -6.169463e-002 -3.800000e-001 4.196940e-001
         vertex -6.169463e-002 3.800000e-001 4.196940e-001
         vertex -6.170204e-002 3.800000e-001 4.163956e-001
      endloop
   endfacet
   facet normal -9.996793e-001 0.000000e+000 -2.532254e-002
      outer loop
         vertex -6.169463e-002 -3.800000e-001 4.196940e-001
         vertex -6.170204e-002 3.800000e-001 4.163956e-001
         vertex -6.170204e-002 -3.800000e-001 4.163956e-001
      endloop
   endfacet
   facet normal -9.967772e-001 0.000000e+000 -8.022001e-002
      outer loop
         vertex -1.495166e-002 3.800000e-001 -1.645033e-001
         vertex -1.495166e-002 -3.800000e-001 -1.645033e-001
         vertex -6.170204e-002 3.800000e-001 4.163956e-001
      endloop
   endfacet
   facet normal -9.967772e-001 0.000000e+000 -8.022001e-002
      outer loop
         vertex -6.170204e-002 3.800000e-001 4.163956e-001
         vertex -1.495166e-002 -3.800000e-001 -1.645033e-001
         vertex -6.170204e-002 -3.800000e-001 4.163956e-001
      endloop
   endfacet
   facet normal 0.000000e+000 -1.000000e+000 0.000000e+000
      outer loop
         vertex 4.505372e-002 -3.800000e-001 4.377280e-001
         vertex 4.176650e-002 -3.800000e-001 4.380000e-001
         vertex 6.170204e-002 -3.800000e-001 4.163956e-001
      endloop
   endfacet
   facet normal 0.000000e+000 -1.000000e+000 0.000000e+000
      outer loop
         vertex 6.170204e-002 -3.800000e-001 4.163956e-001
         vertex 4.176650e-002 -3.800000e-001 4.380000e-001
         vertex 1.495166e-002 -3.800000e-001 -1.645033e-001
      endloop
   endfacet
   facet normal 0.000000e+000 -1.000000e+000 0.000000e+000
      outer loop
         vertex 6.114517e-002 -3.800000e-001 4.229464e-001
         vertex 6.006863e-002 -3.800000e-001 4.260643e-001
         vertex 4.825153e-002 -3.800000e-001 4.369194e-001
      endloop
   endfacet
   facet normal 0.000000e+000 -1.000000e+000 0.000000e+000
      outer loop
         vertex 4.505372e-002 -3.800000e-001 4.377280e-001
         vertex 6.170204e-002 -3.800000e-001 4.163956e-001
         vertex 4.825153e-002 -3.800000e-001 4.369194e-001
      endloop
   endfacet
   facet normal 0.000000e+000 -1.000000e+000 0.000000e+000
      outer loop
         vertex 4.825153e-002 -3.800000e-001 4.369194e-001
         vertex 6.170204e-002 -3.800000e-001 4.163956e-001
         vertex 6.169463e-002 -3.800000e-001 4.196940e-001
      endloop
   endfacet
   facet normal 0.000000e+000 -1.000000e+000 0.000000e+000
      outer loop
         vertex 4.825153e-002 -3.800000e-001 4.369194e-001
         vertex 6.169463e-002 -3.800000e-001 4.196940e-001
         vertex 6.114517e-002 -3.800000e-001 4.229464e-001
      endloop
   endfacet
   facet normal 0.000000e+000 -1.000000e+000 0.000000e+000
      outer loop
         vertex -1.495166e-002 -3.800000e-001 -1.645033e-001
         vertex -4.176650e-002 -3.800000e-001 4.380000e-001
         vertex -6.170204e-002 -3.800000e-001 4.163956e-001
      endloop
   endfacet
   facet normal 0.000000e+000 -1.000000e+000 0.000000e+000
      outer loop
         vertex -6.170204e-002 -3.800000e-001 4.163956e-001
         vertex -4.176650e-002 -3.800000e-001 4.380000e-001
         vertex -4.505372e-002 -3.800000e-001 4.377280e-001
      endloop
   endfacet
   facet normal 0.000000e+000 -1.000000e+000 0.000000e+000
      outer loop
         vertex -6.170204e-002 -3.800000e-001 4.163956e-001
         vertex -4.505372e-002 -3.800000e-001 4.377280e-001
         vertex -4.825153e-002 -3.800000e-001 4.369194e-001
      endloop
   endfacet
   facet normal 0.000000e+000 -1.000000e+000 0.000000e+000
      outer loop
         vertex -4.825153e-002 -3.800000e-001 4.369194e-001
         vertex -5.127295e-002 -3.800000e-001 4.355962e-001
         vertex -6.170204e-002 -3.800000e-001 4.163956e-001
      endloop
   endfacet
   facet normal 0.000000e+000 -1.000000e+000 0.000000e+000
      outer loop
         vertex -6.170204e-002 -3.800000e-001 4.163956e-001
         vertex -5.127295e-002 -3.800000e-001 4.355962e-001
         vertex -5.403581e-002 -3.800000e-001 4.337944e-001
      endloop
   endfacet
   facet normal 0.000000e+000 -1.000000e+000 0.000000e+000
      outer loop
         vertex -6.170204e-002 -3.800000e-001 4.163956e-001
         vertex -5.403581e-002 -3.800000e-001 4.337944e-001
         vertex -6.169463e-002 -3.800000e-001 4.196940e-001
      endloop
   endfacet
   facet normal 0.000000e+000 -1.000000e+000 0.000000e+000
      outer loop
         vertex -5.403581e-002 -3.800000e-001 4.337944e-001
         vertex -5.646493e-002 -3.800000e-001 4.315630e-001
         vertex -5.849427e-002 -3.800000e-001 4.289627e-001
      endloop
   endfacet
   facet normal 0.000000e+000 -1.000000e+000 0.000000e+000
      outer loop
         vertex 6.006863e-002 -3.800000e-001 4.260643e-001
         vertex 5.849427e-002 -3.800000e-001 4.289627e-001
         vertex 4.825153e-002 -3.800000e-001 4.369194e-001
      endloop
   endfacet
   facet normal 0.000000e+000 -1.000000e+000 0.000000e+000
      outer loop
         vertex 4.825153e-002 -3.800000e-001 4.369194e-001
         vertex 5.849427e-002 -3.800000e-001 4.289627e-001
         vertex 5.646493e-002 -3.800000e-001 4.315630e-001
      endloop
   endfacet
   facet normal 0.000000e+000 -1.000000e+000 0.000000e+000
      outer loop
         vertex 4.825153e-002 -3.800000e-001 4.369194e-001
         vertex 5.646493e-002 -3.800000e-001 4.315630e-001
         vertex 5.127295e-002 -3.800000e-001 4.355962e-001
      endloop
   endfacet
   facet normal 0.000000e+000 -1.000000e+000 0.000000e+000
      outer loop
         vertex 5.127295e-002 -3.800000e-001 4.355962e-001
         vertex 5.646493e-002 -3.800000e-001 4.315630e-001
         vertex 5.403581e-002 -3.800000e-001 4.337944e-001
      endloop
   endfacet
   facet normal 0.000000e+000 -1.000000e+000 0.000000e+000
      outer loop
         vertex -9.225640e-003 -3.800000e-001 -1.751274e-001
         vertex -7.149618e-003 -3.800000e-001 -1.764865e-001
         vertex 7.149618e-003 -3.800000e-001 -1.764865e-001
      endloop
   endfacet
   facet normal 0.000000e+000 -1.000000e+000 0.000000e+000
      outer loop
         vertex 7.149618e-003 -3.800000e-001 -1.764865e-001
         vertex -7.149618e-003 -3.800000e-001 -1.764865e-001
         vertex -4.877954e-003 -3.800000e-001 -1.774847e-001
      endloop
   endfacet
   facet normal 0.000000e+000 -1.000000e+000 0.000000e+000
      outer loop
         vertex 7.149618e-003 -3.800000e-001 -1.764865e-001
         vertex -4.877954e-003 -3.800000e-001 -1.774847e-001
         vertex -2.472810e-003 -3.800000e-001 -1.780947e-001
      endloop
   endfacet
   facet normal 0.000000e+000 -1.000000e+000 0.000000e+000
      outer loop
         vertex 9.225640e-003 -3.800000e-001 -1.751274e-001
         vertex 1.104921e-002 -3.800000e-001 -1.734447e-001
         vertex -1.495166e-002 -3.800000e-001 -1.645033e-001
      endloop
   endfacet
   facet normal 0.000000e+000 -1.000000e+000 0.000000e+000
      outer loop
         vertex -1.495166e-002 -3.800000e-001 -1.645033e-001
         vertex 1.104921e-002 -3.800000e-001 -1.734447e-001
         vertex 1.257043e-002 -3.800000e-001 -1.714844e-001
      endloop
   endfacet
   facet normal 0.000000e+000 -1.000000e+000 0.000000e+000
      outer loop
         vertex -1.495166e-002 -3.800000e-001 -1.645033e-001
         vertex 1.257043e-002 -3.800000e-001 -1.714844e-001
         vertex 1.374767e-002 -3.800000e-001 -1.693001e-001
      endloop
   endfacet
   facet normal 0.000000e+000 -1.000000e+000 0.000000e+000
      outer loop
         vertex 4.176650e-002 -3.800000e-001 4.380000e-001
         vertex -4.176650e-002 -3.800000e-001 4.380000e-001
         vertex 1.495166e-002 -3.800000e-001 -1.645033e-001
      endloop
   endfacet
   facet normal 0.000000e+000 -1.000000e+000 0.000000e+000
      outer loop
         vertex 1.495166e-002 -3.800000e-001 -1.645033e-001
         vertex -4.176650e-002 -3.800000e-001 4.380000e-001
         vertex -1.495166e-002 -3.800000e-001 -1.645033e-001
      endloop
   endfacet
   facet normal 0.000000e+000 -1.000000e+000 0.000000e+000
      outer loop
         vertex 1.495166e-002 -3.800000e-001 -1.645033e-001
         vertex -1.495166e-002 -3.800000e-001 -1.645033e-001
         vertex 1.454872e-002 -3.800000e-001 -1.669517e-001
      endloop
   endfacet
   facet normal 0.000000e+000 -1.000000e+000 0.000000e+000
      outer loop
         vertex 1.454872e-002 -3.800000e-001 -1.669517e-001
         vertex -1.495166e-002 -3.800000e-001 -1.645033e-001
         vertex 1.374767e-002 -3.800000e-001 -1.693001e-001
      endloop
   endfacet
   facet normal 0.000000e+000 -1.000000e+000 0.000000e+000
      outer loop
         vertex -5.849427e-002 -3.800000e-001 4.289627e-001
         vertex -6.006863e-002 -3.800000e-001 4.260643e-001
         vertex -5.403581e-002 -3.800000e-001 4.337944e-001
      endloop
   endfacet
   facet normal 0.000000e+000 -1.000000e+000 0.000000e+000
      outer loop
         vertex -5.403581e-002 -3.800000e-001 4.337944e-001
         vertex -6.006863e-002 -3.800000e-001 4.260643e-001
         vertex -6.114517e-002 -3.800000e-001 4.229464e-001
      endloop
   endfacet
   facet normal 0.000000e+000 -1.000000e+000 0.000000e+000
      outer loop
         vertex -5.403581e-002 -3.800000e-001 4.337944e-001
         vertex -6.114517e-002 -3.800000e-001 4.229464e-001
         vertex -6.169463e-002 -3.800000e-001 4.196940e-001
      endloop
   endfacet
   facet normal 0.000000e+000 -1.000000e+000 0.000000e+000
      outer loop
         vertex 9.225640e-003 -3.800000e-001 -1.751274e-001
         vertex -1.495166e-002 -3.800000e-001 -1.645033e-001
         vertex 7.149618e-003 -3.800000e-001 -1.764865e-001
      endloop
   endfacet
   facet normal 0.000000e+000 -1.000000e+000 0.000000e+000
      outer loop
         vertex 7.149618e-003 -3.800000e-001 -1.764865e-001
         vertex -1.495166e-002 -3.800000e-001 -1.645033e-001
         vertex -1.454872e-002 -3.800000e-001 -1.669517e-001
      endloop
   endfacet
   facet normal 0.000000e+000 -1.000000e+000 0.000000e+000
      outer loop
         vertex 7.149618e-003 -3.800000e-001 -1.764865e-001
         vertex -1.454872e-002 -3.800000e-001 -1.669517e-001
         vertex -1.374767e-002 -3.800000e-001 -1.693001e-001
      endloop
   endfacet
   facet normal 0.000000e+000 -1.000000e+000 0.000000e+000
      outer loop
         vertex -1.374767e-002 -3.800000e-001 -1.693001e-001
         vertex -1.257043e-002 -3.800000e-001 -1.714844e-001
         vertex 7.149618e-003 -3.800000e-001 -1.764865e-001
      endloop
   endfacet
   facet normal 0.000000e+000 -1.000000e+000 0.000000e+000
      outer loop
         vertex 7.149618e-003 -3.800000e-001 -1.764865e-001
         vertex -1.257043e-002 -3.800000e-001 -1.714844e-001
         vertex -1.104921e-002 -3.800000e-001 -1.734447e-001
      endloop
   endfacet
   facet normal 0.000000e+000 -1.000000e+000 0.000000e+000
      outer loop
         vertex 7.149618e-003 -3.800000e-001 -1.764865e-001
         vertex -1.104921e-002 -3.800000e-001 -1.734447e-001
         vertex -9.225640e-003 -3.800000e-001 -1.751274e-001
      endloop
   endfacet
   facet normal 0.000000e+000 -1.000000e+000 0.000000e+000
      outer loop
         vertex -2.472810e-003 -3.800000e-001 -1.780947e-001
         vertex 1.836970e-018 -3.800000e-001 -1.783000e-001
         vertex 7.149618e-003 -3.800000e-001 -1.764865e-001
      endloop
   endfacet
   facet normal 0.000000e+000 -1.000000e+000 0.000000e+000
      outer loop
         vertex 7.149618e-003 -3.800000e-001 -1.764865e-001
         vertex 1.836970e-018 -3.800000e-001 -1.783000e-001
         vertex 2.472810e-003 -3.800000e-001 -1.780947e-001
      endloop
   endfacet
   facet normal 0.000000e+000 -1.000000e+000 0.000000e+000
      outer loop
         vertex 7.149618e-003 -3.800000e-001 -1.764865e-001
         vertex 2.472810e-003 -3.800000e-001 -1.780947e-001
         vertex 4.877954e-003 -3.800000e-001 -1.774847e-001
      endloop
   endfacet
   facet normal 0.000000e+000 1.000000e+000 0.000000e+000
      outer loop
         vertex -6.169463e-002 3.800000e-001 4.196940e-001
         vertex -6.114517e-002 3.800000e-001 4.229464e-001
         vertex -5.403581e-002 3.800000e-001 4.337944e-001
      endloop
   endfacet
   facet normal 0.000000e+000 1.000000e+000 0.000000e+000
      outer loop
         vertex -6.169463e-002 3.800000e-001 4.196940e-001
         vertex -5.403581e-002 3.800000e-001 4.337944e-001
         vertex -6.170204e-002 3.800000e-001 4.163956e-001
      endloop
   endfacet
   facet normal 0.000000e+000 1.000000e+000 0.000000e+000
      outer loop
         vertex -6.170204e-002 3.800000e-001 4.163956e-001
         vertex -5.403581e-002 3.800000e-001 4.337944e-001
         vertex -5.127295e-002 3.800000e-001 4.355962e-001
      endloop
   endfacet
   facet normal 0.000000e+000 1.000000e+000 0.000000e+000
      outer loop
         vertex -6.170204e-002 3.800000e-001 4.163956e-001
         vertex -5.127295e-002 3.800000e-001 4.355962e-001
         vertex -4.825153e-002 3.800000e-001 4.369194e-001
      endloop
   endfacet
   facet normal 0.000000e+000 1.000000e+000 0.000000e+000
      outer loop
         vertex 4.176650e-002 3.800000e-001 4.380000e-001
         vertex -1.495166e-002 3.800000e-001 -1.645033e-001
         vertex -4.176650e-002 3.800000e-001 4.380000e-001
      endloop
   endfacet
   facet normal 0.000000e+000 1.000000e+000 0.000000e+000
      outer loop
         vertex -4.176650e-002 3.800000e-001 4.380000e-001
         vertex -1.495166e-002 3.800000e-001 -1.645033e-001
         vertex -6.170204e-002 3.800000e-001 4.163956e-001
      endloop
   endfacet
   facet normal 0.000000e+000 1.000000e+000 0.000000e+000
      outer loop
         vertex -4.176650e-002 3.800000e-001 4.380000e-001
         vertex -6.170204e-002 3.800000e-001 4.163956e-001
         vertex -4.505372e-002 3.800000e-001 4.377280e-001
      endloop
   endfacet
   facet normal 0.000000e+000 1.000000e+000 0.000000e+000
      outer loop
         vertex -4.505372e-002 3.800000e-001 4.377280e-001
         vertex -6.170204e-002 3.800000e-001 4.163956e-001
         vertex -4.825153e-002 3.800000e-001 4.369194e-001
      endloop
   endfacet
   facet normal 0.000000e+000 1.000000e+000 0.000000e+000
      outer loop
         vertex 5.849427e-002 3.800000e-001 4.289627e-001
         vertex 6.006863e-002 3.800000e-001 4.260643e-001
         vertex 4.825153e-002 3.800000e-001 4.369194e-001
      endloop
   endfacet
   facet normal 0.000000e+000 1.000000e+000 0.000000e+000
      outer loop
         vertex -6.114517e-002 3.800000e-001 4.229464e-001
         vertex -6.006863e-002 3.800000e-001 4.260643e-001
         vertex -5.403581e-002 3.800000e-001 4.337944e-001
      endloop
   endfacet
   facet normal 0.000000e+000 1.000000e+000 0.000000e+000
      outer loop
         vertex -5.403581e-002 3.800000e-001 4.337944e-001
         vertex -6.006863e-002 3.800000e-001 4.260643e-001
         vertex -5.849427e-002 3.800000e-001 4.289627e-001
      endloop
   endfacet
   facet normal 0.000000e+000 1.000000e+000 0.000000e+000
      outer loop
         vertex -5.403581e-002 3.800000e-001 4.337944e-001
         vertex -5.849427e-002 3.800000e-001 4.289627e-001
         vertex -5.646493e-002 3.800000e-001 4.315630e-001
      endloop
   endfacet
   facet normal 0.000000e+000 1.000000e+000 0.000000e+000
      outer loop
         vertex 1.454872e-002 3.800000e-001 -1.669517e-001
         vertex -1.495166e-002 3.800000e-001 -1.645033e-001
         vertex 1.495166e-002 3.800000e-001 -1.645033e-001
      endloop
   endfacet
   facet normal 0.000000e+000 1.000000e+000 0.000000e+000
      outer loop
         vertex 1.495166e-002 3.800000e-001 -1.645033e-001
         vertex -1.495166e-002 3.800000e-001 -1.645033e-001
         vertex 4.176650e-002 3.800000e-001 4.380000e-001
      endloop
   endfacet
   facet normal 0.000000e+000 1.000000e+000 0.000000e+000
      outer loop
         vertex 1.495166e-002 3.800000e-001 -1.645033e-001
         vertex 4.176650e-002 3.800000e-001 4.380000e-001
         vertex 6.170204e-002 3.800000e-001 4.163956e-001
      endloop
   endfacet
   facet normal 0.000000e+000 1.000000e+000 0.000000e+000
      outer loop
         vertex 6.170204e-002 3.800000e-001 4.163956e-001
         vertex 4.176650e-002 3.800000e-001 4.380000e-001
         vertex 4.505372e-002 3.800000e-001 4.377280e-001
      endloop
   endfacet
   facet normal 0.000000e+000 1.000000e+000 0.000000e+000
      outer loop
         vertex 6.170204e-002 3.800000e-001 4.163956e-001
         vertex 4.505372e-002 3.800000e-001 4.377280e-001
         vertex 4.825153e-002 3.800000e-001 4.369194e-001
      endloop
   endfacet
   facet normal 0.000000e+000 1.000000e+000 0.000000e+000
      outer loop
         vertex 1.454872e-002 3.800000e-001 -1.669517e-001
         vertex 1.374767e-002 3.800000e-001 -1.693001e-001
         vertex -1.495166e-002 3.800000e-001 -1.645033e-001
      endloop
   endfacet
   facet normal 0.000000e+000 1.000000e+000 0.000000e+000
      outer loop
         vertex -1.495166e-002 3.800000e-001 -1.645033e-001
         vertex 1.374767e-002 3.800000e-001 -1.693001e-001
         vertex 1.257043e-002 3.800000e-001 -1.714844e-001
      endloop
   endfacet
   facet normal 0.000000e+000 1.000000e+000 0.000000e+000
      outer loop
         vertex -1.495166e-002 3.800000e-001 -1.645033e-001
         vertex 1.257043e-002 3.800000e-001 -1.714844e-001
         vertex 1.104921e-002 3.800000e-001 -1.734447e-001
      endloop
   endfacet
   facet normal 0.000000e+000 1.000000e+000 0.000000e+000
      outer loop
         vertex -9.225640e-003 3.800000e-001 -1.751274e-001
         vertex 7.149618e-003 3.800000e-001 -1.764865e-001
         vertex -7.149618e-003 3.800000e-001 -1.764865e-001
      endloop
   endfacet
   facet normal 0.000000e+000 1.000000e+000 0.000000e+000
      outer loop
         vertex -7.149618e-003 3.800000e-001 -1.764865e-001
         vertex 7.149618e-003 3.800000e-001 -1.764865e-001
         vertex 4.877954e-003 3.800000e-001 -1.774847e-001
      endloop
   endfacet
   facet normal 0.000000e+000 1.000000e+000 0.000000e+000
      outer loop
         vertex -7.149618e-003 3.800000e-001 -1.764865e-001
         vertex 4.877954e-003 3.800000e-001 -1.774847e-001
         vertex 2.472810e-003 3.800000e-001 -1.780947e-001
      endloop
   endfacet
   facet normal 0.000000e+000 1.000000e+000 0.000000e+000
      outer loop
         vertex 6.006863e-002 3.800000e-001 4.260643e-001
         vertex 6.114517e-002 3.800000e-001 4.229464e-001
         vertex 4.825153e-002 3.800000e-001 4.369194e-001
      endloop
   endfacet
   facet normal 0.000000e+000 1.000000e+000 0.000000e+000
      outer loop
         vertex 4.825153e-002 3.800000e-001 4.369194e-001
         vertex 6.114517e-002 3.800000e-001 4.229464e-001
         vertex 6.169463e-002 3.800000e-001 4.196940e-001
      endloop
   endfacet
   facet normal 0.000000e+000 1.000000e+000 0.000000e+000
      outer loop
         vertex 4.825153e-002 3.800000e-001 4.369194e-001
         vertex 6.169463e-002 3.800000e-001 4.196940e-001
         vertex 6.170204e-002 3.800000e-001 4.163956e-001
      endloop
   endfacet
   facet normal 0.000000e+000 1.000000e+000 0.000000e+000
      outer loop
         vertex 2.472810e-003 3.800000e-001 -1.780947e-001
         vertex 1.836970e-018 3.800000e-001 -1.783000e-001
         vertex -7.149618e-003 3.800000e-001 -1.764865e-001
      endloop
   endfacet
   facet normal 0.000000e+000 1.000000e+000 0.000000e+000
      outer loop
         vertex -7.149618e-003 3.800000e-001 -1.764865e-001
         vertex 1.836970e-018 3.800000e-001 -1.783000e-001
         vertex -2.472810e-003 3.800000e-001 -1.780947e-001
      endloop
   endfacet
   facet normal 0.000000e+000 1.000000e+000 0.000000e+000
      outer loop
         vertex -7.149618e-003 3.800000e-001 -1.764865e-001
         vertex -2.472810e-003 3.800000e-001 -1.780947e-001
         vertex -4.877954e-003 3.800000e-001 -1.774847e-001
      endloop
   endfacet
   facet normal 0.000000e+000 1.000000e+000 0.000000e+000
      outer loop
         vertex -9.225640e-003 3.800000e-001 -1.751274e-001
         vertex -1.104921e-002 3.800000e-001 -1.734447e-001
         vertex 7.149618e-003 3.800000e-001 -1.764865e-001
      endloop
   endfacet
   facet normal 0.000000e+000 1.000000e+000 0.000000e+000
      outer loop
         vertex 7.149618e-003 3.800000e-001 -1.764865e-001
         vertex -1.104921e-002 3.800000e-001 -1.734447e-001
         vertex -1.257043e-002 3.800000e-001 -1.714844e-001
      endloop
   endfacet
   facet normal 0.000000e+000 1.000000e+000 0.000000e+000
      outer loop
         vertex 7.149618e-003 3.800000e-001 -1.764865e-001
         vertex -1.257043e-002 3.800000e-001 -1.714844e-001
         vertex -1.374767e-002 3.800000e-001 -1.693001e-001
      endloop
   endfacet
   facet normal 0.000000e+000 1.000000e+000 0.000000e+000
      outer loop
         vertex 1.104921e-002 3.800000e-001 -1.734447e-001
         vertex 9.225640e-003 3.800000e-001 -1.751274e-001
         vertex -1.495166e-002 3.800000e-001 -1.645033e-001
      endloop
   endfacet
   facet normal 0.000000e+000 1.000000e+000 0.000000e+000
      outer loop
         vertex -1.495166e-002 3.800000e-001 -1.645033e-001
         vertex 9.225640e-003 3.800000e-001 -1.751274e-001
         vertex 7.149618e-003 3.800000e-001 -1.764865e-001
      endloop
   endfacet
   facet normal 0.000000e+000 1.000000e+000 0.000000e+000
      outer loop
         vertex -1.495166e-002 3.800000e-001 -1.645033e-001
         vertex 7.149618e-003 3.800000e-001 -1.764865e-001
         vertex -1.454872e-002 3.800000e-001 -1.669517e-001
      endloop
   endfacet
   facet normal 0.000000e+000 1.000000e+000 0.000000e+000
      outer loop
         vertex -1.454872e-002 3.800000e-001 -1.669517e-001
         vertex 7.149618e-003 3.800000e-001 -1.764865e-001
         vertex -1.374767e-002 3.800000e-001 -1.693001e-001
      endloop
   endfacet
   facet normal 0.000000e+000 1.000000e+000 0.000000e+000
      outer loop
         vertex 5.849427e-002 3.800000e-001 4.289627e-001
         vertex 4.825153e-002 3.800000e-001 4.369194e-001
         vertex 5.646493e-002 3.800000e-001 4.315630e-001
      endloop
   endfacet
   facet normal 0.000000e+000 1.000000e+000 0.000000e+000
      outer loop
         vertex 5.646493e-002 3.800000e-001 4.315630e-001
         vertex 4.825153e-002 3.800000e-001 4.369194e-001
         vertex 5.127295e-002 3.800000e-001 4.355962e-001
      endloop
   endfacet
   facet normal 0.000000e+000 1.000000e+000 0.000000e+000
      outer loop
         vertex 5.646493e-002 3.800000e-001 4.315630e-001
         vertex 5.127295e-002 3.800000e-001 4.355962e-001
         vertex 5.403581e-002 3.800000e-001 4.337944e-001
      endloop
   endfacet
endsolid