solid ascii
 facet normal -1 0 0
  outer loop
   vertex -0.5 -0.25 -0.05
   vertex -0.5 -0.25 0.05
   vertex -0.5 0.25 -0.05
  endloop
 endfacet
 facet normal -1 0 0
  outer loop
   vertex -0.5 0.25 0.05
   vertex -0.5 0.25 -0.05
   vertex -0.5 -0.25 0.05
  endloop
 endfacet
 facet normal 1 0 0
  outer loop
   vertex 0.5 -0.25 -0.05
   vertex 0.5 0.25 -0.05
   vertex 0.5 -0.25 0.05
  endloop
 endfacet
 facet normal 1 -0 0
  outer loop
   vertex 0.5 0.25 0.05
   vertex 0.5 -0.25 0.05
   vertex 0.5 0.25 -0.05
  endloop
 endfacet
 facet normal 0 -1 0
  outer loop
   vertex -0.5 -0.25 -0.05
   vertex 0.5 -0.25 -0.05
   vertex -0.5 -0.25 0.05
  endloop
 endfacet
 facet normal 0 -1 0
  outer loop
   vertex 0.5 -0.25 0.05
   vertex -0.5 -0.25 0.05
   vertex 0.5 -0.25 -0.05
  endloop
 endfacet
 facet normal 0 1 0
  outer loop
   vertex -0.5 0.25 -0.05
   vertex -0.5 0.25 0.05
   vertex 0.5 0.25 -0.05
  endloop
 endfacet
 facet normal 0 1 -0
  outer loop
   vertex 0.5 0.25 0.05
   vertex 0.5 0.25 -0.05
   vertex -0.5 0.25 0.05
  endloop
 endfacet
 facet normal 0 0 -1
  outer loop
   vertex -0.5 -0.25 -0.05
   vertex -0.5 0.25 -0.05
   vertex 0.5 -0.25 -0.05
  endloop
 endfacet
 facet normal 0 0 -1
  outer loop
   vertex 0.5 0.25 -0.05
   vertex 0.5 -0.25 -0.05
   vertex -0.5 0.25 -0.05
  endloop
 endfacet
 facet normal 0 0 1
  outer loop
   vertex -0.5 -0.25 0.05
   vertex 0.5 -0.25 0.05
   vertex -0.5 0.25 0.05
  endloop
 endfacet
 facet normal -0 0 1
  outer loop
   vertex 0.5 0.25 0.05
   vertex -0.5 0.25 0.05
   vertex 0.5 -0.25 0.05
  endloop
 endfacet
endsolid
