solid ascii
 facet normal 0.998027 -0.0627907 -1.39423e-17
  outer loop
   vertex 0.2 5.55112e-17 -0.25
   vertex 0.2 -5.55112e-17 0.25
   vertex 0.198423 -0.0250666 -0.25
  endloop
 endfacet
 facet normal 0.998027 -0.0627907 0
  outer loop
   vertex 0.198423 -0.0250666 0.25
   vertex 0.198423 -0.0250666 -0.25
   vertex 0.2 -5.55112e-17 0.25
  endloop
 endfacet
 facet normal 0.982287 -0.187381 0
  outer loop
   vertex 0.198423 -0.0250666 -0.25
   vertex 0.198423 -0.0250666 0.25
   vertex 0.193717 -0.049738 -0.25
  endloop
 endfacet
 facet normal 0.982287 -0.187381 0
  outer loop
   vertex 0.193717 -0.049738 0.25
   vertex 0.193717 -0.049738 -0.25
   vertex 0.198423 -0.0250666 0.25
  endloop
 endfacet
 facet normal 0.951057 -0.309017 0
  outer loop
   vertex 0.193717 -0.049738 -0.25
   vertex 0.193717 -0.049738 0.25
   vertex 0.185955 -0.0736249 -0.25
  endloop
 endfacet
 facet normal 0.951057 -0.309017 0
  outer loop
   vertex 0.185955 -0.0736249 0.25
   vertex 0.185955 -0.0736249 -0.25
   vertex 0.193717 -0.049738 0.25
  endloop
 endfacet
 facet normal 0.904827 -0.425779 0
  outer loop
   vertex 0.185955 -0.0736249 -0.25
   vertex 0.185955 -0.0736249 0.25
   vertex 0.175261 -0.0963507 -0.25
  endloop
 endfacet
 facet normal 0.904827 -0.425779 0
  outer loop
   vertex 0.175261 -0.0963507 0.25
   vertex 0.175261 -0.0963507 -0.25
   vertex 0.185955 -0.0736249 0.25
  endloop
 endfacet
 facet normal 0.844328 -0.535827 0
  outer loop
   vertex 0.175261 -0.0963507 -0.25
   vertex 0.175261 -0.0963507 0.25
   vertex 0.161803 -0.117557 -0.25
  endloop
 endfacet
 facet normal 0.844328 -0.535827 0
  outer loop
   vertex 0.161803 -0.117557 0.25
   vertex 0.161803 -0.117557 -0.25
   vertex 0.175261 -0.0963507 0.25
  endloop
 endfacet
 facet normal 0.770513 -0.637424 0
  outer loop
   vertex 0.161803 -0.117557 -0.25
   vertex 0.161803 -0.117557 0.25
   vertex 0.145794 -0.136909 -0.25
  endloop
 endfacet
 facet normal 0.770513 -0.637424 0
  outer loop
   vertex 0.145794 -0.136909 -0.25
   vertex 0.161803 -0.117557 0.25
   vertex 0.145794 -0.136909 0.25
  endloop
 endfacet
 facet normal 0.684547 -0.728969 0
  outer loop
   vertex 0.145794 -0.136909 -0.25
   vertex 0.145794 -0.136909 0.25
   vertex 0.127485 -0.154103 -0.25
  endloop
 endfacet
 facet normal 0.684547 -0.728969 0
  outer loop
   vertex 0.127485 -0.154103 0.25
   vertex 0.127485 -0.154103 -0.25
   vertex 0.145794 -0.136909 0.25
  endloop
 endfacet
 facet normal 0.587785 -0.809017 0
  outer loop
   vertex 0.127485 -0.154103 -0.25
   vertex 0.127485 -0.154103 0.25
   vertex 0.107165 -0.168866 -0.25
  endloop
 endfacet
 facet normal 0.587785 -0.809017 0
  outer loop
   vertex 0.107165 -0.168866 0.25
   vertex 0.107165 -0.168866 -0.25
   vertex 0.127485 -0.154103 0.25
  endloop
 endfacet
 facet normal 0.481753 -0.876307 0
  outer loop
   vertex 0.107165 -0.168866 -0.25
   vertex 0.107165 -0.168866 0.25
   vertex 0.0851559 -0.180965 -0.25
  endloop
 endfacet
 facet normal 0.481753 -0.876307 0
  outer loop
   vertex 0.0851559 -0.180965 0.25
   vertex 0.0851559 -0.180965 -0.25
   vertex 0.107165 -0.168866 0.25
  endloop
 endfacet
 facet normal 0.368124 -0.929777 0
  outer loop
   vertex 0.0851559 -0.180965 -0.25
   vertex 0.0851559 -0.180965 0.25
   vertex 0.0618034 -0.190211 -0.25
  endloop
 endfacet
 facet normal 0.368124 -0.929777 0
  outer loop
   vertex 0.0618034 -0.190211 0.25
   vertex 0.0618034 -0.190211 -0.25
   vertex 0.0851559 -0.180965 0.25
  endloop
 endfacet
 facet normal 0.24869 -0.968583 0
  outer loop
   vertex 0.0618034 -0.190211 -0.25
   vertex 0.0618034 -0.190211 0.25
   vertex 0.0374763 -0.196457 -0.25
  endloop
 endfacet
 facet normal 0.24869 -0.968583 0
  outer loop
   vertex 0.0374763 -0.196457 0.25
   vertex 0.0374763 -0.196457 -0.25
   vertex 0.0618034 -0.190211 0.25
  endloop
 endfacet
 facet normal 0.125333 -0.992115 0
  outer loop
   vertex 0.0374763 -0.196457 -0.25
   vertex 0.0374763 -0.196457 0.25
   vertex 0.0125581 -0.199605 -0.25
  endloop
 endfacet
 facet normal 0.125333 -0.992115 0
  outer loop
   vertex 0.0125581 -0.199605 0.25
   vertex 0.0125581 -0.199605 -0.25
   vertex 0.0374763 -0.196457 0.25
  endloop
 endfacet
 facet normal 0 -1 -0
  outer loop
   vertex 0.0125581 -0.199605 -0.25
   vertex 0.0125581 -0.199605 0.25
   vertex -0.0125581 -0.199605 -0.25
  endloop
 endfacet
 facet normal 0 -1 0
  outer loop
   vertex -0.0125581 -0.199605 0.25
   vertex -0.0125581 -0.199605 -0.25
   vertex 0.0125581 -0.199605 0.25
  endloop
 endfacet
 facet normal -0.125333 -0.992115 -0
  outer loop
   vertex -0.0125581 -0.199605 -0.25
   vertex -0.0125581 -0.199605 0.25
   vertex -0.0374763 -0.196457 -0.25
  endloop
 endfacet
 facet normal -0.125333 -0.992115 0
  outer loop
   vertex -0.0374763 -0.196457 0.25
   vertex -0.0374763 -0.196457 -0.25
   vertex -0.0125581 -0.199605 0.25
  endloop
 endfacet
 facet normal -0.24869 -0.968583 -0
  outer loop
   vertex -0.0374763 -0.196457 -0.25
   vertex -0.0374763 -0.196457 0.25
   vertex -0.0618034 -0.190211 -0.25
  endloop
 endfacet
 facet normal -0.24869 -0.968583 0
  outer loop
   vertex -0.0618034 -0.190211 0.25
   vertex -0.0618034 -0.190211 -0.25
   vertex -0.0374763 -0.196457 0.25
  endloop
 endfacet
 facet normal -0.368124 -0.929777 -0
  outer loop
   vertex -0.0618034 -0.190211 -0.25
   vertex -0.0618034 -0.190211 0.25
   vertex -0.0851559 -0.180965 -0.25
  endloop
 endfacet
 facet normal -0.368124 -0.929777 0
  outer loop
   vertex -0.0851559 -0.180965 0.25
   vertex -0.0851559 -0.180965 -0.25
   vertex -0.0618034 -0.190211 0.25
  endloop
 endfacet
 facet normal -0.481753 -0.876307 -0
  outer loop
   vertex -0.0851559 -0.180965 -0.25
   vertex -0.0851559 -0.180965 0.25
   vertex -0.107165 -0.168866 -0.25
  endloop
 endfacet
 facet normal -0.481753 -0.876307 0
  outer loop
   vertex -0.107165 -0.168866 0.25
   vertex -0.107165 -0.168866 -0.25
   vertex -0.0851559 -0.180965 0.25
  endloop
 endfacet
 facet normal -0.587785 -0.809017 -0
  outer loop
   vertex -0.107165 -0.168866 -0.25
   vertex -0.107165 -0.168866 0.25
   vertex -0.127485 -0.154103 -0.25
  endloop
 endfacet
 facet normal -0.587785 -0.809017 0
  outer loop
   vertex -0.127485 -0.154103 0.25
   vertex -0.127485 -0.154103 -0.25
   vertex -0.107165 -0.168866 0.25
  endloop
 endfacet
 facet normal -0.684547 -0.728969 -0
  outer loop
   vertex -0.127485 -0.154103 -0.25
   vertex -0.127485 -0.154103 0.25
   vertex -0.145794 -0.136909 -0.25
  endloop
 endfacet
 facet normal -0.684547 -0.728969 0
  outer loop
   vertex -0.145794 -0.136909 0.25
   vertex -0.145794 -0.136909 -0.25
   vertex -0.127485 -0.154103 0.25
  endloop
 endfacet
 facet normal -0.770513 -0.637424 -0
  outer loop
   vertex -0.145794 -0.136909 -0.25
   vertex -0.145794 -0.136909 0.25
   vertex -0.161803 -0.117557 -0.25
  endloop
 endfacet
 facet normal -0.770513 -0.637424 0
  outer loop
   vertex -0.161803 -0.117557 -0.25
   vertex -0.145794 -0.136909 0.25
   vertex -0.161803 -0.117557 0.25
  endloop
 endfacet
 facet normal -0.844328 -0.535827 -0
  outer loop
   vertex -0.161803 -0.117557 -0.25
   vertex -0.161803 -0.117557 0.25
   vertex -0.175261 -0.0963507 -0.25
  endloop
 endfacet
 facet normal -0.844328 -0.535827 0
  outer loop
   vertex -0.175261 -0.0963507 0.25
   vertex -0.175261 -0.0963507 -0.25
   vertex -0.161803 -0.117557 0.25
  endloop
 endfacet
 facet normal -0.904827 -0.425779 -0
  outer loop
   vertex -0.175261 -0.0963507 -0.25
   vertex -0.175261 -0.0963507 0.25
   vertex -0.185955 -0.0736249 -0.25
  endloop
 endfacet
 facet normal -0.904827 -0.425779 0
  outer loop
   vertex -0.185955 -0.0736249 0.25
   vertex -0.185955 -0.0736249 -0.25
   vertex -0.175261 -0.0963507 0.25
  endloop
 endfacet
 facet normal -0.951057 -0.309017 -0
  outer loop
   vertex -0.185955 -0.0736249 -0.25
   vertex -0.185955 -0.0736249 0.25
   vertex -0.193717 -0.049738 -0.25
  endloop
 endfacet
 facet normal -0.951057 -0.309017 0
  outer loop
   vertex -0.193717 -0.049738 0.25
   vertex -0.193717 -0.049738 -0.25
   vertex -0.185955 -0.0736249 0.25
  endloop
 endfacet
 facet normal -0.982287 -0.187381 -0
  outer loop
   vertex -0.193717 -0.049738 -0.25
   vertex -0.193717 -0.049738 0.25
   vertex -0.198423 -0.0250666 -0.25
  endloop
 endfacet
 facet normal -0.982287 -0.187381 0
  outer loop
   vertex -0.198423 -0.0250666 0.25
   vertex -0.198423 -0.0250666 -0.25
   vertex -0.193717 -0.049738 0.25
  endloop
 endfacet
 facet normal -0.998027 -0.0627907 -0
  outer loop
   vertex -0.198423 -0.0250666 -0.25
   vertex -0.198423 -0.0250666 0.25
   vertex -0.2 1.19836e-16 -0.25
  endloop
 endfacet
 facet normal -0.998027 -0.0627907 -1.40294e-17
  outer loop
   vertex -0.2 1.19836e-16 -0.25
   vertex -0.198423 -0.0250666 0.25
   vertex -0.2 8.81376e-18 0.25
  endloop
 endfacet
 facet normal -0.998027 0.0627907 1.40294e-17
  outer loop
   vertex -0.2 8.81376e-18 0.25
   vertex -0.198423 0.0250666 0.25
   vertex -0.2 1.19836e-16 -0.25
  endloop
 endfacet
 facet normal -0.998027 0.0627907 0
  outer loop
   vertex -0.198423 0.0250666 -0.25
   vertex -0.2 1.19836e-16 -0.25
   vertex -0.198423 0.0250666 0.25
  endloop
 endfacet
 facet normal -0.982287 0.187381 0
  outer loop
   vertex -0.198423 0.0250666 -0.25
   vertex -0.198423 0.0250666 0.25
   vertex -0.193717 0.049738 -0.25
  endloop
 endfacet
 facet normal -0.982287 0.187381 0
  outer loop
   vertex -0.193717 0.049738 0.25
   vertex -0.193717 0.049738 -0.25
   vertex -0.198423 0.0250666 0.25
  endloop
 endfacet
 facet normal -0.951057 0.309017 0
  outer loop
   vertex -0.193717 0.049738 -0.25
   vertex -0.193717 0.049738 0.25
   vertex -0.185955 0.0736249 -0.25
  endloop
 endfacet
 facet normal -0.951057 0.309017 0
  outer loop
   vertex -0.185955 0.0736249 0.25
   vertex -0.185955 0.0736249 -0.25
   vertex -0.193717 0.049738 0.25
  endloop
 endfacet
 facet normal -0.904827 0.425779 0
  outer loop
   vertex -0.185955 0.0736249 -0.25
   vertex -0.185955 0.0736249 0.25
   vertex -0.175261 0.0963507 -0.25
  endloop
 endfacet
 facet normal -0.904827 0.425779 0
  outer loop
   vertex -0.175261 0.0963507 0.25
   vertex -0.175261 0.0963507 -0.25
   vertex -0.185955 0.0736249 0.25
  endloop
 endfacet
 facet normal -0.844328 0.535827 0
  outer loop
   vertex -0.175261 0.0963507 -0.25
   vertex -0.175261 0.0963507 0.25
   vertex -0.161803 0.117557 -0.25
  endloop
 endfacet
 facet normal -0.844328 0.535827 0
  outer loop
   vertex -0.161803 0.117557 0.25
   vertex -0.161803 0.117557 -0.25
   vertex -0.175261 0.0963507 0.25
  endloop
 endfacet
 facet normal -0.770513 0.637424 0
  outer loop
   vertex -0.161803 0.117557 -0.25
   vertex -0.161803 0.117557 0.25
   vertex -0.145794 0.136909 -0.25
  endloop
 endfacet
 facet normal -0.770513 0.637424 0
  outer loop
   vertex -0.145794 0.136909 -0.25
   vertex -0.161803 0.117557 0.25
   vertex -0.145794 0.136909 0.25
  endloop
 endfacet
 facet normal -0.684547 0.728969 0
  outer loop
   vertex -0.145794 0.136909 -0.25
   vertex -0.145794 0.136909 0.25
   vertex -0.127485 0.154103 -0.25
  endloop
 endfacet
 facet normal -0.684547 0.728969 0
  outer loop
   vertex -0.127485 0.154103 0.25
   vertex -0.127485 0.154103 -0.25
   vertex -0.145794 0.136909 0.25
  endloop
 endfacet
 facet normal -0.587785 0.809017 0
  outer loop
   vertex -0.127485 0.154103 -0.25
   vertex -0.127485 0.154103 0.25
   vertex -0.107165 0.168866 -0.25
  endloop
 endfacet
 facet normal -0.587785 0.809017 0
  outer loop
   vertex -0.107165 0.168866 0.25
   vertex -0.107165 0.168866 -0.25
   vertex -0.127485 0.154103 0.25
  endloop
 endfacet
 facet normal -0.481753 0.876307 0
  outer loop
   vertex -0.107165 0.168866 -0.25
   vertex -0.107165 0.168866 0.25
   vertex -0.0851559 0.180965 -0.25
  endloop
 endfacet
 facet normal -0.481753 0.876307 0
  outer loop
   vertex -0.0851559 0.180965 0.25
   vertex -0.0851559 0.180965 -0.25
   vertex -0.107165 0.168866 0.25
  endloop
 endfacet
 facet normal -0.368124 0.929777 0
  outer loop
   vertex -0.0851559 0.180965 -0.25
   vertex -0.0851559 0.180965 0.25
   vertex -0.0618034 0.190211 -0.25
  endloop
 endfacet
 facet normal -0.368124 0.929777 0
  outer loop
   vertex -0.0618034 0.190211 0.25
   vertex -0.0618034 0.190211 -0.25
   vertex -0.0851559 0.180965 0.25
  endloop
 endfacet
 facet normal -0.24869 0.968583 0
  outer loop
   vertex -0.0618034 0.190211 -0.25
   vertex -0.0618034 0.190211 0.25
   vertex -0.0374763 0.196457 -0.25
  endloop
 endfacet
 facet normal -0.24869 0.968583 0
  outer loop
   vertex -0.0374763 0.196457 0.25
   vertex -0.0374763 0.196457 -0.25
   vertex -0.0618034 0.190211 0.25
  endloop
 endfacet
 facet normal -0.125333 0.992115 0
  outer loop
   vertex -0.0374763 0.196457 -0.25
   vertex -0.0374763 0.196457 0.25
   vertex -0.0125581 0.199605 -0.25
  endloop
 endfacet
 facet normal -0.125333 0.992115 0
  outer loop
   vertex -0.0125581 0.199605 0.25
   vertex -0.0125581 0.199605 -0.25
   vertex -0.0374763 0.196457 0.25
  endloop
 endfacet
 facet normal 0 1 0
  outer loop
   vertex -0.0125581 0.199605 -0.25
   vertex -0.0125581 0.199605 0.25
   vertex 0.0125581 0.199605 -0.25
  endloop
 endfacet
 facet normal 0 1 -0
  outer loop
   vertex 0.0125581 0.199605 0.25
   vertex 0.0125581 0.199605 -0.25
   vertex -0.0125581 0.199605 0.25
  endloop
 endfacet
 facet normal 0.125333 0.992115 0
  outer loop
   vertex 0.0125581 0.199605 -0.25
   vertex 0.0125581 0.199605 0.25
   vertex 0.0374763 0.196457 -0.25
  endloop
 endfacet
 facet normal 0.125333 0.992115 -0
  outer loop
   vertex 0.0374763 0.196457 0.25
   vertex 0.0374763 0.196457 -0.25
   vertex 0.0125581 0.199605 0.25
  endloop
 endfacet
 facet normal 0.24869 0.968583 0
  outer loop
   vertex 0.0374763 0.196457 -0.25
   vertex 0.0374763 0.196457 0.25
   vertex 0.0618034 0.190211 -0.25
  endloop
 endfacet
 facet normal 0.24869 0.968583 -0
  outer loop
   vertex 0.0618034 0.190211 0.25
   vertex 0.0618034 0.190211 -0.25
   vertex 0.0374763 0.196457 0.25
  endloop
 endfacet
 facet normal 0.368124 0.929777 0
  outer loop
   vertex 0.0618034 0.190211 -0.25
   vertex 0.0618034 0.190211 0.25
   vertex 0.0851559 0.180965 -0.25
  endloop
 endfacet
 facet normal 0.368124 0.929777 -0
  outer loop
   vertex 0.0851559 0.180965 0.25
   vertex 0.0851559 0.180965 -0.25
   vertex 0.0618034 0.190211 0.25
  endloop
 endfacet
 facet normal 0.481753 0.876307 0
  outer loop
   vertex 0.0851559 0.180965 -0.25
   vertex 0.0851559 0.180965 0.25
   vertex 0.107165 0.168866 -0.25
  endloop
 endfacet
 facet normal 0.481753 0.876307 -0
  outer loop
   vertex 0.107165 0.168866 0.25
   vertex 0.107165 0.168866 -0.25
   vertex 0.0851559 0.180965 0.25
  endloop
 endfacet
 facet normal 0.587785 0.809017 0
  outer loop
   vertex 0.107165 0.168866 -0.25
   vertex 0.107165 0.168866 0.25
   vertex 0.127485 0.154103 -0.25
  endloop
 endfacet
 facet normal 0.587785 0.809017 -0
  outer loop
   vertex 0.127485 0.154103 0.25
   vertex 0.127485 0.154103 -0.25
   vertex 0.107165 0.168866 0.25
  endloop
 endfacet
 facet normal 0.684547 0.728969 0
  outer loop
   vertex 0.127485 0.154103 -0.25
   vertex 0.127485 0.154103 0.25
   vertex 0.145794 0.136909 -0.25
  endloop
 endfacet
 facet normal 0.684547 0.728969 -0
  outer loop
   vertex 0.145794 0.136909 0.25
   vertex 0.145794 0.136909 -0.25
   vertex 0.127485 0.154103 0.25
  endloop
 endfacet
 facet normal 0.770513 0.637424 0
  outer loop
   vertex 0.145794 0.136909 -0.25
   vertex 0.145794 0.136909 0.25
   vertex 0.161803 0.117557 -0.25
  endloop
 endfacet
 facet normal 0.770513 0.637424 0
  outer loop
   vertex 0.161803 0.117557 -0.25
   vertex 0.145794 0.136909 0.25
   vertex 0.161803 0.117557 0.25
  endloop
 endfacet
 facet normal 0.844328 0.535827 0
  outer loop
   vertex 0.161803 0.117557 -0.25
   vertex 0.161803 0.117557 0.25
   vertex 0.175261 0.0963507 -0.25
  endloop
 endfacet
 facet normal 0.844328 0.535827 -0
  outer loop
   vertex 0.175261 0.0963507 0.25
   vertex 0.175261 0.0963507 -0.25
   vertex 0.161803 0.117557 0.25
  endloop
 endfacet
 facet normal 0.904827 0.425779 0
  outer loop
   vertex 0.175261 0.0963507 -0.25
   vertex 0.175261 0.0963507 0.25
   vertex 0.185955 0.0736249 -0.25
  endloop
 endfacet
 facet normal 0.904827 0.425779 -0
  outer loop
   vertex 0.185955 0.0736249 0.25
   vertex 0.185955 0.0736249 -0.25
   vertex 0.175261 0.0963507 0.25
  endloop
 endfacet
 facet normal 0.951057 0.309017 0
  outer loop
   vertex 0.185955 0.0736249 -0.25
   vertex 0.185955 0.0736249 0.25
   vertex 0.193717 0.049738 -0.25
  endloop
 endfacet
 facet normal 0.951057 0.309017 -0
  outer loop
   vertex 0.193717 0.049738 0.25
   vertex 0.193717 0.049738 -0.25
   vertex 0.185955 0.0736249 0.25
  endloop
 endfacet
 facet normal 0.982287 0.187381 0
  outer loop
   vertex 0.193717 0.049738 -0.25
   vertex 0.193717 0.049738 0.25
   vertex 0.198423 0.0250666 -0.25
  endloop
 endfacet
 facet normal 0.982287 0.187381 -0
  outer loop
   vertex 0.198423 0.0250666 0.25
   vertex 0.198423 0.0250666 -0.25
   vertex 0.193717 0.049738 0.25
  endloop
 endfacet
 facet normal 0.998027 0.0627907 0
  outer loop
   vertex 0.198423 0.0250666 0.25
   vertex 0.2 -5.55112e-17 0.25
   vertex 0.198423 0.0250666 -0.25
  endloop
 endfacet
 facet normal 0.998027 0.0627907 1.40294e-17
  outer loop
   vertex 0.2 5.55112e-17 -0.25
   vertex 0.198423 0.0250666 -0.25
   vertex 0.2 -5.55112e-17 0.25
  endloop
 endfacet
 facet normal 0 0 -1
  outer loop
   vertex 0.2 5.55112e-17 -0.25
   vertex 0.198423 -0.0250666 -0.25
   vertex 0.198423 0.0250666 -0.25
  endloop
 endfacet
 facet normal 0 0 -1
  outer loop
   vertex 0.198423 0.0250666 -0.25
   vertex 0.198423 -0.0250666 -0.25
   vertex 0.193717 0.049738 -0.25
  endloop
 endfacet
 facet normal 0 0 -1
  outer loop
   vertex 0.198423 -0.0250666 -0.25
   vertex 0.193717 -0.049738 -0.25
   vertex 0.193717 0.049738 -0.25
  endloop
 endfacet
 facet normal 0 0 -1
  outer loop
   vertex 0.193717 0.049738 -0.25
   vertex 0.193717 -0.049738 -0.25
   vertex 0.185955 0.0736249 -0.25
  endloop
 endfacet
 facet normal 0 0 -1
  outer loop
   vertex 0.185955 0.0736249 -0.25
   vertex 0.193717 -0.049738 -0.25
   vertex 0.175261 0.0963507 -0.25
  endloop
 endfacet
 facet normal 0 0 -1
  outer loop
   vertex 0.175261 0.0963507 -0.25
   vertex 0.193717 -0.049738 -0.25
   vertex 0.161803 0.117557 -0.25
  endloop
 endfacet
 facet normal 0 0 -1
  outer loop
   vertex 0.161803 0.117557 -0.25
   vertex 0.193717 -0.049738 -0.25
   vertex 0.145794 0.136909 -0.25
  endloop
 endfacet
 facet normal 0 0 -1
  outer loop
   vertex 0.145794 0.136909 -0.25
   vertex 0.193717 -0.049738 -0.25
   vertex 0.127485 0.154103 -0.25
  endloop
 endfacet
 facet normal 0 0 -1
  outer loop
   vertex 0.127485 0.154103 -0.25
   vertex 0.193717 -0.049738 -0.25
   vertex 0.107165 0.168866 -0.25
  endloop
 endfacet
 facet normal 0 0 -1
  outer loop
   vertex 0.107165 0.168866 -0.25
   vertex 0.193717 -0.049738 -0.25
   vertex 0.0851559 0.180965 -0.25
  endloop
 endfacet
 facet normal 0 0 -1
  outer loop
   vertex 0.0851559 0.180965 -0.25
   vertex 0.193717 -0.049738 -0.25
   vertex 0.0618034 0.190211 -0.25
  endloop
 endfacet
 facet normal 0 0 -1
  outer loop
   vertex 0.0618034 0.190211 -0.25
   vertex 0.193717 -0.049738 -0.25
   vertex 0.0374763 0.196457 -0.25
  endloop
 endfacet
 facet normal 0 0 -1
  outer loop
   vertex 0.0374763 0.196457 -0.25
   vertex 0.193717 -0.049738 -0.25
   vertex 0.0125581 0.199605 -0.25
  endloop
 endfacet
 facet normal 0 0 -1
  outer loop
   vertex 0.0125581 0.199605 -0.25
   vertex 0.193717 -0.049738 -0.25
   vertex -0.0125581 0.199605 -0.25
  endloop
 endfacet
 facet normal 0 0 -1
  outer loop
   vertex -0.0125581 0.199605 -0.25
   vertex 0.193717 -0.049738 -0.25
   vertex -0.0374763 0.196457 -0.25
  endloop
 endfacet
 facet normal 0 0 -1
  outer loop
   vertex -0.0374763 0.196457 -0.25
   vertex 0.193717 -0.049738 -0.25
   vertex -0.0618034 0.190211 -0.25
  endloop
 endfacet
 facet normal 0 0 -1
  outer loop
   vertex -0.0618034 0.190211 -0.25
   vertex 0.193717 -0.049738 -0.25
   vertex -0.0851559 0.180965 -0.25
  endloop
 endfacet
 facet normal 0 0 -1
  outer loop
   vertex 0.193717 -0.049738 -0.25
   vertex 0.185955 -0.0736249 -0.25
   vertex -0.0851559 0.180965 -0.25
  endloop
 endfacet
 facet normal 0 0 -1
  outer loop
   vertex 0.185955 -0.0736249 -0.25
   vertex 0.175261 -0.0963507 -0.25
   vertex -0.0851559 0.180965 -0.25
  endloop
 endfacet
 facet normal 0 0 -1
  outer loop
   vertex 0.175261 -0.0963507 -0.25
   vertex 0.161803 -0.117557 -0.25
   vertex -0.0851559 0.180965 -0.25
  endloop
 endfacet
 facet normal 0 0 -1
  outer loop
   vertex 0.161803 -0.117557 -0.25
   vertex 0.145794 -0.136909 -0.25
   vertex -0.0851559 0.180965 -0.25
  endloop
 endfacet
 facet normal 0 0 -1
  outer loop
   vertex 0.145794 -0.136909 -0.25
   vertex 0.127485 -0.154103 -0.25
   vertex -0.0851559 0.180965 -0.25
  endloop
 endfacet
 facet normal 0 0 -1
  outer loop
   vertex 0.127485 -0.154103 -0.25
   vertex 0.107165 -0.168866 -0.25
   vertex -0.0851559 0.180965 -0.25
  endloop
 endfacet
 facet normal 0 0 -1
  outer loop
   vertex 0.107165 -0.168866 -0.25
   vertex 0.0851559 -0.180965 -0.25
   vertex -0.0851559 0.180965 -0.25
  endloop
 endfacet
 facet normal 0 0 -1
  outer loop
   vertex 0.0851559 -0.180965 -0.25
   vertex 0.0618034 -0.190211 -0.25
   vertex -0.0851559 0.180965 -0.25
  endloop
 endfacet
 facet normal 0 0 -1
  outer loop
   vertex 0.0618034 -0.190211 -0.25
   vertex 0.0374763 -0.196457 -0.25
   vertex -0.0851559 0.180965 -0.25
  endloop
 endfacet
 facet normal 0 0 -1
  outer loop
   vertex 0.0374763 -0.196457 -0.25
   vertex 0.0125581 -0.199605 -0.25
   vertex -0.0851559 0.180965 -0.25
  endloop
 endfacet
 facet normal 0 0 -1
  outer loop
   vertex 0.0125581 -0.199605 -0.25
   vertex -0.0125581 -0.199605 -0.25
   vertex -0.0851559 0.180965 -0.25
  endloop
 endfacet
 facet normal 0 0 -1
  outer loop
   vertex -0.0125581 -0.199605 -0.25
   vertex -0.0374763 -0.196457 -0.25
   vertex -0.0851559 0.180965 -0.25
  endloop
 endfacet
 facet normal 0 0 -1
  outer loop
   vertex -0.0374763 -0.196457 -0.25
   vertex -0.0618034 -0.190211 -0.25
   vertex -0.0851559 0.180965 -0.25
  endloop
 endfacet
 facet normal 0 0 -1
  outer loop
   vertex -0.0618034 -0.190211 -0.25
   vertex -0.0851559 -0.180965 -0.25
   vertex -0.0851559 0.180965 -0.25
  endloop
 endfacet
 facet normal 0 0 -1
  outer loop
   vertex -0.0851559 0.180965 -0.25
   vertex -0.0851559 -0.180965 -0.25
   vertex -0.107165 0.168866 -0.25
  endloop
 endfacet
 facet normal 0 0 -1
  outer loop
   vertex -0.107165 0.168866 -0.25
   vertex -0.0851559 -0.180965 -0.25
   vertex -0.127485 0.154103 -0.25
  endloop
 endfacet
 facet normal 0 0 -1
  outer loop
   vertex -0.0851559 -0.180965 -0.25
   vertex -0.107165 -0.168866 -0.25
   vertex -0.127485 0.154103 -0.25
  endloop
 endfacet
 facet normal 0 0 -1
  outer loop
   vertex -0.107165 -0.168866 -0.25
   vertex -0.127485 -0.154103 -0.25
   vertex -0.127485 0.154103 -0.25
  endloop
 endfacet
 facet normal 0 0 -1
  outer loop
   vertex -0.127485 0.154103 -0.25
   vertex -0.127485 -0.154103 -0.25
   vertex -0.145794 0.136909 -0.25
  endloop
 endfacet
 facet normal 0 0 -1
  outer loop
   vertex -0.145794 0.136909 -0.25
   vertex -0.127485 -0.154103 -0.25
   vertex -0.161803 0.117557 -0.25
  endloop
 endfacet
 facet normal 0 0 -1
  outer loop
   vertex -0.161803 0.117557 -0.25
   vertex -0.127485 -0.154103 -0.25
   vertex -0.175261 0.0963507 -0.25
  endloop
 endfacet
 facet normal 0 0 -1
  outer loop
   vertex -0.175261 0.0963507 -0.25
   vertex -0.127485 -0.154103 -0.25
   vertex -0.185955 0.0736249 -0.25
  endloop
 endfacet
 facet normal 0 0 -1
  outer loop
   vertex -0.127485 -0.154103 -0.25
   vertex -0.145794 -0.136909 -0.25
   vertex -0.185955 0.0736249 -0.25
  endloop
 endfacet
 facet normal 0 0 -1
  outer loop
   vertex -0.145794 -0.136909 -0.25
   vertex -0.161803 -0.117557 -0.25
   vertex -0.185955 0.0736249 -0.25
  endloop
 endfacet
 facet normal 0 0 -1
  outer loop
   vertex -0.161803 -0.117557 -0.25
   vertex -0.175261 -0.0963507 -0.25
   vertex -0.185955 0.0736249 -0.25
  endloop
 endfacet
 facet normal 0 0 -1
  outer loop
   vertex -0.175261 -0.0963507 -0.25
   vertex -0.185955 -0.0736249 -0.25
   vertex -0.185955 0.0736249 -0.25
  endloop
 endfacet
 facet normal 0 0 -1
  outer loop
   vertex -0.185955 0.0736249 -0.25
   vertex -0.185955 -0.0736249 -0.25
   vertex -0.193717 0.049738 -0.25
  endloop
 endfacet
 facet normal 0 0 -1
  outer loop
   vertex -0.193717 0.049738 -0.25
   vertex -0.185955 -0.0736249 -0.25
   vertex -0.198423 0.0250666 -0.25
  endloop
 endfacet
 facet normal 0 0 -1
  outer loop
   vertex -0.198423 0.0250666 -0.25
   vertex -0.185955 -0.0736249 -0.25
   vertex -0.2 1.19836e-16 -0.25
  endloop
 endfacet
 facet normal 0 0 -1
  outer loop
   vertex -0.185955 -0.0736249 -0.25
   vertex -0.193717 -0.049738 -0.25
   vertex -0.2 1.19836e-16 -0.25
  endloop
 endfacet
 facet normal 0 0 -1
  outer loop
   vertex -0.198423 -0.0250666 -0.25
   vertex -0.2 1.19836e-16 -0.25
   vertex -0.193717 -0.049738 -0.25
  endloop
 endfacet
 facet normal 0 -0 1
  outer loop
   vertex -0.2 8.81376e-18 0.25
   vertex -0.198423 -0.0250666 0.25
   vertex -0.198423 0.0250666 0.25
  endloop
 endfacet
 facet normal 0 0 1
  outer loop
   vertex -0.198423 0.0250666 0.25
   vertex -0.198423 -0.0250666 0.25
   vertex -0.193717 0.049738 0.25
  endloop
 endfacet
 facet normal 0 -0 1
  outer loop
   vertex -0.198423 -0.0250666 0.25
   vertex -0.193717 -0.049738 0.25
   vertex -0.193717 0.049738 0.25
  endloop
 endfacet
 facet normal 0 0 1
  outer loop
   vertex -0.193717 0.049738 0.25
   vertex -0.193717 -0.049738 0.25
   vertex -0.185955 0.0736249 0.25
  endloop
 endfacet
 facet normal 0 0 1
  outer loop
   vertex -0.185955 0.0736249 0.25
   vertex -0.193717 -0.049738 0.25
   vertex -0.175261 0.0963507 0.25
  endloop
 endfacet
 facet normal 0 0 1
  outer loop
   vertex -0.175261 0.0963507 0.25
   vertex -0.193717 -0.049738 0.25
   vertex -0.161803 0.117557 0.25
  endloop
 endfacet
 facet normal 0 0 1
  outer loop
   vertex -0.161803 0.117557 0.25
   vertex -0.193717 -0.049738 0.25
   vertex -0.145794 0.136909 0.25
  endloop
 endfacet
 facet normal 0 0 1
  outer loop
   vertex -0.145794 0.136909 0.25
   vertex -0.193717 -0.049738 0.25
   vertex -0.127485 0.154103 0.25
  endloop
 endfacet
 facet normal 0 0 1
  outer loop
   vertex -0.127485 0.154103 0.25
   vertex -0.193717 -0.049738 0.25
   vertex -0.107165 0.168866 0.25
  endloop
 endfacet
 facet normal 0 0 1
  outer loop
   vertex -0.107165 0.168866 0.25
   vertex -0.193717 -0.049738 0.25
   vertex -0.0851559 0.180965 0.25
  endloop
 endfacet
 facet normal 0 0 1
  outer loop
   vertex -0.0851559 0.180965 0.25
   vertex -0.193717 -0.049738 0.25
   vertex -0.0618034 0.190211 0.25
  endloop
 endfacet
 facet normal 0 0 1
  outer loop
   vertex -0.0618034 0.190211 0.25
   vertex -0.193717 -0.049738 0.25
   vertex -0.0374763 0.196457 0.25
  endloop
 endfacet
 facet normal 0 0 1
  outer loop
   vertex -0.0374763 0.196457 0.25
   vertex -0.193717 -0.049738 0.25
   vertex -0.0125581 0.199605 0.25
  endloop
 endfacet
 facet normal 0 0 1
  outer loop
   vertex -0.0125581 0.199605 0.25
   vertex -0.193717 -0.049738 0.25
   vertex 0.0125581 0.199605 0.25
  endloop
 endfacet
 facet normal 0 0 1
  outer loop
   vertex 0.0125581 0.199605 0.25
   vertex -0.193717 -0.049738 0.25
   vertex 0.0374763 0.196457 0.25
  endloop
 endfacet
 facet normal 0 0 1
  outer loop
   vertex 0.0374763 0.196457 0.25
   vertex -0.193717 -0.049738 0.25
   vertex 0.0618034 0.190211 0.25
  endloop
 endfacet
 facet normal 0 0 1
  outer loop
   vertex 0.0618034 0.190211 0.25
   vertex -0.193717 -0.049738 0.25
   vertex 0.0851559 0.180965 0.25
  endloop
 endfacet
 facet normal 0 -0 1
  outer loop
   vertex -0.193717 -0.049738 0.25
   vertex -0.185955 -0.0736249 0.25
   vertex 0.0851559 0.180965 0.25
  endloop
 endfacet
 facet normal 0 -0 1
  outer loop
   vertex -0.185955 -0.0736249 0.25
   vertex -0.175261 -0.0963507 0.25
   vertex 0.0851559 0.180965 0.25
  endloop
 endfacet
 facet normal 0 -0 1
  outer loop
   vertex -0.175261 -0.0963507 0.25
   vertex -0.161803 -0.117557 0.25
   vertex 0.0851559 0.180965 0.25
  endloop
 endfacet
 facet normal 0 -0 1
  outer loop
   vertex -0.161803 -0.117557 0.25
   vertex -0.145794 -0.136909 0.25
   vertex 0.0851559 0.180965 0.25
  endloop
 endfacet
 facet normal 0 -0 1
  outer loop
   vertex -0.145794 -0.136909 0.25
   vertex -0.127485 -0.154103 0.25
   vertex 0.0851559 0.180965 0.25
  endloop
 endfacet
 facet normal 0 -0 1
  outer loop
   vertex -0.127485 -0.154103 0.25
   vertex -0.107165 -0.168866 0.25
   vertex 0.0851559 0.180965 0.25
  endloop
 endfacet
 facet normal 0 -0 1
  outer loop
   vertex -0.107165 -0.168866 0.25
   vertex -0.0851559 -0.180965 0.25
   vertex 0.0851559 0.180965 0.25
  endloop
 endfacet
 facet normal 0 -0 1
  outer loop
   vertex -0.0851559 -0.180965 0.25
   vertex -0.0618034 -0.190211 0.25
   vertex 0.0851559 0.180965 0.25
  endloop
 endfacet
 facet normal 0 -0 1
  outer loop
   vertex -0.0618034 -0.190211 0.25
   vertex -0.0374763 -0.196457 0.25
   vertex 0.0851559 0.180965 0.25
  endloop
 endfacet
 facet normal 0 -0 1
  outer loop
   vertex -0.0374763 -0.196457 0.25
   vertex -0.0125581 -0.199605 0.25
   vertex 0.0851559 0.180965 0.25
  endloop
 endfacet
 facet normal 0 -0 1
  outer loop
   vertex -0.0125581 -0.199605 0.25
   vertex 0.0125581 -0.199605 0.25
   vertex 0.0851559 0.180965 0.25
  endloop
 endfacet
 facet normal 0 -0 1
  outer loop
   vertex 0.0125581 -0.199605 0.25
   vertex 0.0374763 -0.196457 0.25
   vertex 0.0851559 0.180965 0.25
  endloop
 endfacet
 facet normal 0 -0 1
  outer loop
   vertex 0.0374763 -0.196457 0.25
   vertex 0.0618034 -0.190211 0.25
   vertex 0.0851559 0.180965 0.25
  endloop
 endfacet
 facet normal 0 -0 1
  outer loop
   vertex 0.0618034 -0.190211 0.25
   vertex 0.0851559 -0.180965 0.25
   vertex 0.0851559 0.180965 0.25
  endloop
 endfacet
 facet normal 0 0 1
  outer loop
   vertex 0.0851559 0.180965 0.25
   vertex 0.0851559 -0.180965 0.25
   vertex 0.107165 0.168866 0.25
  endloop
 endfacet
 facet normal 0 0 1
  outer loop
   vertex 0.107165 0.168866 0.25
   vertex 0.0851559 -0.180965 0.25
   vertex 0.127485 0.154103 0.25
  endloop
 endfacet
 facet normal 0 -0 1
  outer loop
   vertex 0.0851559 -0.180965 0.25
   vertex 0.107165 -0.168866 0.25
   vertex 0.127485 0.154103 0.25
  endloop
 endfacet
 facet normal 0 -0 1
  outer loop
   vertex 0.107165 -0.168866 0.25
   vertex 0.127485 -0.154103 0.25
   vertex 0.127485 0.154103 0.25
  endloop
 endfacet
 facet normal 0 0 1
  outer loop
   vertex 0.127485 0.154103 0.25
   vertex 0.127485 -0.154103 0.25
   vertex 0.145794 0.136909 0.25
  endloop
 endfacet
 facet normal 0 0 1
  outer loop
   vertex 0.145794 0.136909 0.25
   vertex 0.127485 -0.154103 0.25
   vertex 0.161803 0.117557 0.25
  endloop
 endfacet
 facet normal 0 0 1
  outer loop
   vertex 0.161803 0.117557 0.25
   vertex 0.127485 -0.154103 0.25
   vertex 0.175261 0.0963507 0.25
  endloop
 endfacet
 facet normal 0 0 1
  outer loop
   vertex 0.175261 0.0963507 0.25
   vertex 0.127485 -0.154103 0.25
   vertex 0.185955 0.0736249 0.25
  endloop
 endfacet
 facet normal 0 -0 1
  outer loop
   vertex 0.127485 -0.154103 0.25
   vertex 0.145794 -0.136909 0.25
   vertex 0.185955 0.0736249 0.25
  endloop
 endfacet
 facet normal 0 -0 1
  outer loop
   vertex 0.145794 -0.136909 0.25
   vertex 0.161803 -0.117557 0.25
   vertex 0.185955 0.0736249 0.25
  endloop
 endfacet
 facet normal 0 -0 1
  outer loop
   vertex 0.161803 -0.117557 0.25
   vertex 0.175261 -0.0963507 0.25
   vertex 0.185955 0.0736249 0.25
  endloop
 endfacet
 facet normal 0 -0 1
  outer loop
   vertex 0.175261 -0.0963507 0.25
   vertex 0.185955 -0.0736249 0.25
   vertex 0.185955 0.0736249 0.25
  endloop
 endfacet
 facet normal 0 0 1
  outer loop
   vertex 0.185955 0.0736249 0.25
   vertex 0.185955 -0.0736249 0.25
   vertex 0.193717 0.049738 0.25
  endloop
 endfacet
 facet normal 0 0 1
  outer loop
   vertex 0.193717 0.049738 0.25
   vertex 0.185955 -0.0736249 0.25
   vertex 0.198423 0.0250666 0.25
  endloop
 endfacet
 facet normal 0 0 1
  outer loop
   vertex 0.198423 0.0250666 0.25
   vertex 0.185955 -0.0736249 0.25
   vertex 0.2 -5.55112e-17 0.25
  endloop
 endfacet
 facet normal 0 -0 1
  outer loop
   vertex 0.185955 -0.0736249 0.25
   vertex 0.193717 -0.049738 0.25
   vertex 0.2 -5.55112e-17 0.25
  endloop
 endfacet
 facet normal 0 0 1
  outer loop
   vertex 0.198423 -0.0250666 0.25
   vertex 0.2 -5.55112e-17 0.25
   vertex 0.193717 -0.049738 0.25
  endloop
 endfacet
endsolid
