solid base
   facet normal 6.982962e-015 0.000000e+000 1.000000e+000
      outer loop
         vertex 9.000000e-001 -9.020000e+000 1.500000e+000
         vertex 9.000000e-001 9.020000e+000 1.500000e+000
         vertex -9.000000e-001 -9.020000e+000 1.500000e+000
      endloop
   endfacet
   facet normal 6.982962e-015 0.000000e+000 1.000000e+000
      outer loop
         vertex -9.000000e-001 -9.020000e+000 1.500000e+000
         vertex 9.000000e-001 9.020000e+000 1.500000e+000
         vertex -9.000000e-001 9.020000e+000 1.500000e+000
      endloop
   endfacet
   facet normal 1.000000e+000 0.000000e+000 -7.205007e-015
      outer loop
         vertex 9.000000e-001 -9.020000e+000 6.217249e-015
         vertex 9.000000e-001 9.020000e+000 -6.217249e-015
         vertex 9.000000e-001 -9.020000e+000 1.500000e+000
      endloop
   endfacet
   facet normal 1.000000e+000 0.000000e+000 -7.205007e-015
      outer loop
         vertex 9.000000e-001 -9.020000e+000 1.500000e+000
         vertex 9.000000e-001 9.020000e+000 -6.217249e-015
         vertex 9.000000e-001 9.020000e+000 1.500000e+000
      endloop
   endfacet
   facet normal -6.982962e-015 0.000000e+000 -1.000000e+000
      outer loop
         vertex -9.000000e-001 -9.020000e+000 6.284666e-015
         vertex -9.000000e-001 9.020000e+000 6.284666e-015
         vertex 9.000000e-001 -9.020000e+000 -6.284666e-015
      endloop
   endfacet
   facet normal -6.982962e-015 0.000000e+000 -1.000000e+000
      outer loop
         vertex 9.000000e-001 -9.020000e+000 -6.284666e-015
         vertex -9.000000e-001 9.020000e+000 6.284666e-015
         vertex 9.000000e-001 9.020000e+000 -6.284666e-015
      endloop
   endfacet
   facet normal -1.000000e+000 0.000000e+000 7.056977e-015
      outer loop
         vertex -9.000000e-001 -9.020000e+000 1.500000e+000
         vertex -9.000000e-001 9.020000e+000 1.500000e+000
         vertex -9.000000e-001 -9.020000e+000 -6.284666e-015
      endloop
   endfacet
   facet normal -1.000000e+000 0.000000e+000 7.056977e-015
      outer loop
         vertex -9.000000e-001 -9.020000e+000 -6.284666e-015
         vertex -9.000000e-001 9.020000e+000 1.500000e+000
         vertex -9.000000e-001 9.020000e+000 6.284666e-015
      endloop
   endfacet
   facet normal 0.000000e+000 1.000000e+000 0.000000e+000
      outer loop
         vertex 9.000000e-001 9.020000e+000 -6.284666e-015
         vertex -9.000000e-001 9.020000e+000 6.284666e-015
         vertex 9.000000e-001 9.020000e+000 1.500000e+000
      endloop
   endfacet
   facet normal 0.000000e+000 1.000000e+000 0.000000e+000
      outer loop
         vertex 9.000000e-001 9.020000e+000 1.500000e+000
         vertex -9.000000e-001 9.020000e+000 6.284666e-015
         vertex -9.000000e-001 9.020000e+000 1.500000e+000
      endloop
   endfacet
   facet normal 6.982962e-015 -1.000000e+000 0.000000e+000
      outer loop
         vertex -9.000000e-001 -9.020000e+000 -6.284666e-015
         vertex 9.000000e-001 -9.020000e+000 6.284666e-015
         vertex -9.000000e-001 -9.020000e+000 1.500000e+000
      endloop
   endfacet
   facet normal 6.982962e-015 -1.000000e+000 0.000000e+000
      outer loop
         vertex -9.000000e-001 -9.020000e+000 1.500000e+000
         vertex 9.000000e-001 -9.020000e+000 6.284666e-015
         vertex 9.000000e-001 -9.020000e+000 1.500000e+000
      endloop
   endfacet
endsolid